<?xml version="1.0" standalone="no"?>
<!DOCTYPE svg PUBLIC "-//W3C//DTD SVG 1.1//EN" "http://www.w3.org/Graphics/SVG/1.1/DTD/svg11.dtd" >
<svg xmlns="http://www.w3.org/2000/svg" xmlns:xlink="http://www.w3.org/1999/xlink" version="1.1">
<metadata>
Created by FontForge 20230101 at Tue May 30 23:33:55 2017
 By Unknown
Copyright (c) 2017 by Jorge Cisterna. All rights reserved.
</metadata>
<defs>
<font id="Weekly-SemiBold" horiz-adv-x="0" >
  <font-face 
    font-family="Weekly SemiBold"
    font-weight="600"
    font-stretch="normal"
    units-per-em="1000"
    panose-1="0 0 7 0 0 0 0 0 0 0"
    ascent="800"
    descent="-200"
    x-height="506"
    cap-height="690"
    bbox="-708 -261 1351 919"
    underline-thickness="50"
    underline-position="-100"
    unicode-range="U+0020-FB02"
  />
<missing-glyph horiz-adv-x="600" 
 />
    <glyph glyph-name="fi" unicode="fi" horiz-adv-x="676" 
d="M576 75h73v-75h-254v75h75v351h-247v-351h79v-75h-260v75h75v351h-84v80h84v48q0 82 49 129t128 47q56 0 96 -25l-20 -78q-37 20 -69 20q-34 0 -56 -24t-22 -70v-47h319q34 0 34 -34v-397zM526 564q-32 0 -54.5 22t-22.5 54q0 30 22.5 52t54.5 22q30 0 52 -22t22 -52
q0 -32 -22 -54t-52 -22z" />
    <glyph glyph-name="fl" unicode="fl" horiz-adv-x="671" 
d="M570 75h75v-75h-258v75h77v553q-53 15 -109 15q-132 0 -132 -103v-34h138v-80h-138v-351h79v-75h-260v75h75v351h-84v80h84v36q0 91 64 139.5t175 48.5q95 0 182 -28q32 -11 32 -41v-586z" />
    <glyph glyph-name="f_f" unicode="ff" horiz-adv-x="725" 
d="M642 647q-33 0 -55 -24t-22 -70v-47h138v-80h-138v-351h78v-75h-259v75h74v351h-235v-351h79v-75h-260v75h75v351h-84v80h84v48q0 82 49 129t128 47q56 0 96 -25l-20 -78q-37 20 -69 20q-34 0 -56 -24t-22 -70v-47h235v48q0 82 49 129t129 47q55 0 95 -25l-19 -78
q-37 20 -70 20z" />
    <glyph glyph-name=".notdef" horiz-adv-x="600" 
 />
    <glyph glyph-name=".null" 
 />
    <glyph glyph-name="nonmarkingreturn" horiz-adv-x="333" 
 />
    <glyph glyph-name="space" unicode=" " horiz-adv-x="236" 
 />
    <glyph glyph-name="exclam" unicode="!" horiz-adv-x="284" 
d="M187 207h-88l-8 519h103zM217 64q0 -30 -22 -52t-53 -22t-53.5 22t-22.5 52q0 32 22.5 54t53.5 22q32 0 53.5 -22t21.5 -54z" />
    <glyph glyph-name="quotedbl" unicode="&#x22;" horiz-adv-x="363" 
d="M152 470h-87l-8 260h104zM296 470h-87l-8 260h104z" />
    <glyph glyph-name="numbersign" unicode="#" horiz-adv-x="778" 
d="M730 404h-156l-27 -121h183v-88h-203l-45 -195h-93l44 195h-165l-44 -195h-95l44 195h-126v88h145l27 121h-172v89h192l40 177h96l-40 -177h164l40 177h96l-40 -177h135v-89zM452 283l27 121h-164l-27 -121h164z" />
    <glyph glyph-name="dollar" unicode="$" horiz-adv-x="561" 
d="M521 200q0 -76 -53.5 -124t-145.5 -57l11 -78h-101l11 78q-126 13 -193 94v131h84v-78q58 -60 149 -60q60 0 97.5 25t37.5 69q0 31 -20 51t-52.5 29.5t-71.5 17t-77.5 18.5t-71 29.5t-52.5 55t-20 88.5q0 70 50 119t135 59l-9 62h101l-9 -62q102 -12 170 -69v-157h-85v93
q-53 45 -128 45q-55 0 -89 -24t-34 -66q0 -39 27 -62t68 -31t88 -19.5t88 -26t68 -52.5t27 -98z" />
    <glyph glyph-name="percent" unicode="%" horiz-adv-x="733" 
d="M181 336q-64 0 -104.5 51t-40.5 131t39.5 131t105.5 51q65 0 105 -50.5t40 -131.5q0 -79 -39.5 -130.5t-105.5 -51.5zM181 402q32 0 51.5 31.5t19.5 84.5t-19 84.5t-52 31.5t-52 -31.5t-19 -84.5t19 -84.5t52 -31.5zM571 591l-330 -534l-70 42l330 533zM552 -10
q-64 0 -104 50.5t-40 131.5q0 80 39 131t105 51q65 0 105.5 -50.5t40.5 -131.5q0 -79 -39.5 -130.5t-106.5 -51.5zM552 56q32 0 52 31.5t20 84.5t-19.5 84.5t-52.5 31.5q-32 0 -50.5 -31.5t-18.5 -84.5q0 -52 18.5 -84t50.5 -32z" />
    <glyph glyph-name="ampersand" unicode="&#x26;" horiz-adv-x="695" 
d="M591 78h70v-78h-136l-51 56q-82 -66 -204 -66q-103 0 -167.5 55.5t-64.5 145.5q0 66 38 117.5t104 78.5q-57 70 -57 140q0 78 55.5 125.5t150.5 47.5q117 0 197 -78v-131h-85v80q-47 44 -109 44q-47 0 -76 -23.5t-29 -61.5q0 -56 64 -122l191 -210q28 56 28 123v44h142
v-78h-63q-5 -85 -47 -155zM279 74q78 0 139 45l-184 205q-94 -43 -94 -130q0 -54 38.5 -87t100.5 -33z" />
    <glyph glyph-name="quotesingle" unicode="'" horiz-adv-x="218" 
d="M152 470h-87l-8 260h104z" />
    <glyph glyph-name="parenleft" unicode="(" horiz-adv-x="269" 
d="M49 256q0 249 97 450l86 -31q-83 -190 -83 -419t83 -419l-86 -31q-97 201 -97 450z" />
    <glyph glyph-name="parenright" unicode=")" horiz-adv-x="269" 
d="M220 256q0 -249 -97 -450l-87 31q84 192 84 419t-84 419l87 31q97 -201 97 -450z" />
    <glyph glyph-name="asterisk" unicode="*" horiz-adv-x="412" 
d="M125 408l-52 42l85 92l-112 38l17 59l111 -43l-6 109h71l-4 -109l111 43l17 -59l-113 -38l88 -92l-52 -42l-81 99z" />
    <glyph glyph-name="plus" unicode="+" horiz-adv-x="504" 
d="M37 352h171v171h87l-1 -171h173v-86h-172l-1 -172h-86v172l-171 -1v87z" />
    <glyph glyph-name="comma" unicode="," horiz-adv-x="240" 
d="M122 141q30 0 52 -22.5t22 -52.5q0 -21 -18 -62l-60 -144h-76l57 132q-24 8 -39 28t-15 46q0 30 22.5 52.5t54.5 22.5z" />
    <glyph glyph-name="hyphen" unicode="-" horiz-adv-x="433" 
d="M63 322h308v-84h-308v84z" />
    <glyph glyph-name="period" unicode="." horiz-adv-x="248" 
d="M125 -10q-32 0 -54.5 22.5t-22.5 53.5q0 30 23 52.5t54 22.5q30 0 52 -22.5t22 -52.5q0 -32 -21.5 -54t-52.5 -22z" />
    <glyph glyph-name="slash" unicode="/" horiz-adv-x="474" 
d="M111 -130h-89l340 910h89z" />
    <glyph glyph-name="zero" unicode="0" horiz-adv-x="633" 
d="M317 -10q-124 0 -196 93.5t-72 261.5t72 261.5t196 93.5q123 0 195.5 -94t72.5 -261t-72.5 -261t-195.5 -94zM317 83q74 0 117 68.5t43 193.5q0 126 -42.5 194t-117.5 68t-117.5 -68t-42.5 -194t42.5 -194t117.5 -68z" />
    <glyph glyph-name="one" unicode="1" horiz-adv-x="357" 
d="M45 0v78h84v534h-84v78h192v-612h83v-78h-275z" />
    <glyph glyph-name="two" unicode="2" horiz-adv-x="554" 
d="M416 190h84v-190h-457v55l210 245q80 93 104.5 132t24.5 82q0 44 -31 70t-82 26q-79 0 -131 -50v-100h-85v162q93 78 218 78q102 0 160 -48t58 -132q0 -55 -32.5 -108t-129.5 -165l-142 -164h231v107z" />
    <glyph glyph-name="three" unicode="3" horiz-adv-x="552" 
d="M370 357q133 -35 133 -179q0 -84 -61.5 -136t-171.5 -52q-69 0 -126 22t-91 62v116h85v-60q47 -50 133 -50q56 0 90.5 29.5t34.5 78.5q0 56 -39.5 88t-105.5 32h-59v85h59q63 0 99 31.5t36 84.5q0 46 -32 73.5t-86 27.5q-74 0 -122 -50v-88h-85v152q87 76 214 76
q96 0 153.5 -49t57.5 -130q0 -59 -31 -101.5t-85 -62.5z" />
    <glyph glyph-name="four" unicode="4" horiz-adv-x="564" 
d="M433 245h100v-82h-101v-160h-107v160h-303v78l275 449h136v-445zM117 245h214v354z" />
    <glyph glyph-name="five" unicode="5" horiz-adv-x="548" 
d="M50 74v116h85v-59q50 -51 128 -51q60 0 96 36.5t36 96.5q0 59 -37.5 95.5t-96.5 36.5q-70 0 -111 -37l-86 9l30 373h380v-171h-84v87h-210l-20 -212q52 36 124 36q99 0 158.5 -59.5t59.5 -157.5q0 -101 -65 -162t-174 -61q-139 0 -213 84z" />
    <glyph glyph-name="six" unicode="6" horiz-adv-x="570" 
d="M314 434q95 0 151.5 -58t56.5 -153q0 -105 -63.5 -169t-165.5 -64q-116 0 -179.5 89t-63.5 253q0 182 70 275t187 93q56 0 107.5 -22t83.5 -59v-120h-85v72q-32 42 -106 42q-70 0 -112 -62.5t-46 -193.5q64 77 165 77zM293 76q56 0 89 39.5t33 107.5q0 60 -33.5 94.5
t-89.5 34.5q-41 0 -78 -22.5t-62 -62.5q9 -95 45.5 -143t95.5 -48z" />
    <glyph glyph-name="seven" unicode="7" horiz-adv-x="507" 
d="M30 690h462v-54l-264 -636h-106l252 604h-259v-111h-85v197z" />
    <glyph glyph-name="eight" unicode="8" horiz-adv-x="572" 
d="M422 356q104 -57 104 -167q0 -92 -67.5 -147.5t-172.5 -55.5q-106 0 -173 55.5t-67 147.5q0 110 104 167q-77 56 -77 148q0 88 59.5 142t153.5 54t154 -54t60 -142q0 -92 -78 -148zM174 501q0 -49 32 -79.5t80 -30.5q49 0 81 30.5t32 79.5q0 50 -32.5 82t-80.5 32
t-80 -32t-32 -82zM286 73q54 0 91 34t37 86q0 53 -37 86t-91 33t-91 -33t-37 -86q0 -52 37 -86t91 -34z" />
    <glyph glyph-name="nine" unicode="9" horiz-adv-x="574" 
d="M277 700q119 0 182.5 -89t63.5 -261q0 -360 -253 -360q-56 0 -112.5 22.5t-85.5 59.5v127h85v-77q16 -19 47.5 -32t63.5 -13q75 0 112.5 59.5t41.5 188.5q-65 -79 -166 -79q-94 0 -151 64t-57 160q0 104 63 167t166 63zM278 331q42 0 79 23.5t62 64.5q-19 193 -142 193
q-54 0 -88 -38t-34 -104q0 -61 34 -100t89 -39z" />
    <glyph glyph-name="colon" unicode=":" horiz-adv-x="268" 
d="M135 319q-32 0 -54 22.5t-22 54.5q0 30 22.5 52t53.5 22q30 0 52 -22t22 -52q0 -32 -21.5 -54.5t-52.5 -22.5zM135 -10q-31 0 -53.5 22t-22.5 54q0 30 22.5 52.5t53.5 22.5q30 0 52 -22.5t22 -52.5q0 -32 -21.5 -54t-52.5 -22z" />
    <glyph glyph-name="semicolon" unicode=";" horiz-adv-x="277" 
d="M141 319q-32 0 -54.5 22.5t-22.5 54.5q0 29 23 51.5t54 22.5q30 0 52 -22t22 -52q0 -32 -21.5 -54.5t-52.5 -22.5zM141 141q30 0 52 -22.5t22 -52.5q0 -21 -17 -62l-61 -144h-75l62 131q-26 5 -43 26.5t-17 48.5q0 30 23 52.5t54 22.5z" />
    <glyph glyph-name="less" unicode="&#x3c;" horiz-adv-x="458" 
d="M395 520v-102l-278 -115l278 -115v-104l-361 175v86z" />
    <glyph glyph-name="equal" unicode="=" horiz-adv-x="541" 
d="M65 447h411v-86h-411v86zM65 254h411v-86h-411v86z" />
    <glyph glyph-name="greater" unicode="&#x3e;" horiz-adv-x="458" 
d="M63 520l361 -175v-86l-361 -175v104l279 115l-279 115v102z" />
    <glyph glyph-name="question" unicode="?" horiz-adv-x="508" 
d="M476 511q0 -33 -11 -61.5t-28.5 -48t-38.5 -38t-41 -35t-36 -34.5t-24.5 -42t-4.5 -52h-105q-4 41 7.5 74t32 53t45.5 41t47 38t36.5 43t14.5 57q0 49 -32 78t-86 29q-72 0 -132 -51v-102h-84v154q93 86 220 86q99 0 159.5 -53t60.5 -136zM241 141q32 0 54.5 -22.5
t22.5 -54.5q0 -29 -23 -51.5t-54 -22.5q-30 0 -52 22t-22 52q0 32 21.5 54.5t52.5 22.5z" />
    <glyph glyph-name="at" unicode="@" horiz-adv-x="996" 
d="M492 689q200 0 329 -114.5t129 -295.5q0 -119 -54 -192t-142 -73q-53 0 -90 27.5t-48 75.5h-2q-18 -50 -59 -78.5t-101 -27.5q-89 1 -144 66.5t-55 171.5q0 109 57.5 175.5t152.5 66.5q83 0 133 -53l12 45h77v-317q0 -76 67 -76q52 0 80 52.5t28 136.5q0 144 -104 236.5
t-266 92.5q-160 0 -261.5 -100.5t-101.5 -258.5q0 -161 101.5 -263t261.5 -102q119 0 237 55l20 -80q-110 -56 -257 -56q-199 0 -325 124t-126 322q0 195 126 317.5t325 122.5zM477 94q48 0 80 40t32 96v134q-39 45 -105 45q-57 0 -91.5 -43.5t-34.5 -115.5q0 -70 33 -113
t86 -43z" />
    <glyph glyph-name="A" unicode="A" horiz-adv-x="718" 
d="M648 78h69v-78h-252v78h71l-49 139h-262l-47 -139h72v-78h-246v78h69l218 612h130zM254 303h203l-103 295z" />
    <glyph glyph-name="B" unicode="B" horiz-adv-x="677" 
d="M511 369q60 -24 92.5 -69t32.5 -106q0 -91 -68.5 -142.5t-185.5 -51.5h-329v78h72v535h-72v78l304 -1q116 -1 178 -50.5t62 -131.5q0 -91 -86 -139zM232 608v-208h132q58 0 92 27.5t34 76.5q0 46 -35 75t-97 29h-126zM376 82q67 0 106 32.5t39 85.5q0 55 -35.5 88
t-107.5 33h-146v-239h144z" />
    <glyph glyph-name="C" unicode="C" horiz-adv-x="683" 
d="M625 448h-84v109q-69 52 -173 52q-94 0 -153 -73t-59 -191t59.5 -191t155.5 -73q110 0 176 47v101h84v-155q-42 -39 -112 -61.5t-148 -22.5q-146 0 -236.5 98t-90.5 257q0 160 88 257.5t237 97.5q159 0 257 -87z" />
    <glyph glyph-name="D" unicode="D" horiz-adv-x="716" 
d="M53 0v78h72v534h-72v78h297q147 0 233 -94t86 -255q0 -158 -84 -249.5t-235 -91.5h-297zM232 84h118q98 1 153.5 68t55.5 189q0 121 -56 194t-153 72h-118v-523z" />
    <glyph glyph-name="E" unicode="E" horiz-adv-x="633" 
d="M499 174h84v-174h-530v78h72v534h-72v78h526v-178h-84v96h-263v-214h250v-83h-250v-229h267v92z" />
    <glyph glyph-name="F" unicode="F" horiz-adv-x="586" 
d="M563 517h-84v91h-247v-221h243v-84h-243v-225h80v-78h-259v78h72v534h-72v78h510v-173z" />
    <glyph glyph-name="G" unicode="G" horiz-adv-x="696" 
d="M403 337h234v-261q-99 -86 -269 -86q-145 0 -233.5 97.5t-88.5 257.5t88.5 257.5t233.5 97.5q162 0 262 -98v-149h-85v96q-25 25 -72 42.5t-105 17.5q-95 0 -152.5 -72.5t-57.5 -191.5t57.5 -191.5t152.5 -72.5q105 0 174 47v129h-139v80z" />
    <glyph glyph-name="H" unicode="H" horiz-adv-x="792" 
d="M738 612h-71v-534h71v-78h-250v78h72v224h-328v-224h71v-78h-250v78h72v534h-72v78h250v-78h-71v-224h328v224h-72v78h250v-78z" />
    <glyph glyph-name="I" unicode="I" horiz-adv-x="359" 
d="M54 0v78h71v534h-71v78h250v-78h-70v-534h70v-78h-250z" />
    <glyph glyph-name="J" unicode="J" horiz-adv-x="583" 
d="M285 690h260v-78h-71v-401q0 -109 -65.5 -165t-171.5 -56q-66 0 -122 24.5t-86 71.5v144h94v-100q39 -46 116 -46q56 0 91.5 35t35.5 98v395h-81v78z" />
    <glyph glyph-name="K" unicode="K" horiz-adv-x="711" 
d="M232 612v-534h71v-78h-250v78h72v534h-72v78h250v-78h-71zM629 78h61v-78h-185v69l-226 265v19l223 260h-63v77h239v-77h-58l-231 -265z" />
    <glyph glyph-name="L" unicode="L" horiz-adv-x="581" 
d="M481 195h83v-195h-511v78h72v534h-72v78h251v-78h-72v-530h249v113z" />
    <glyph glyph-name="M" unicode="M" horiz-adv-x="914" 
d="M862 613h-74v-535h74v-78h-242v78h73v453l-188 -361h-92l-192 368v-460h73v-78h-241v78h73v535h-73v77l181 -1l226 -433l225 434h177v-77z" />
    <glyph glyph-name="N" unicode="N" horiz-adv-x="788" 
d="M501 690h246v-77h-74v-613h-110l-341 539v-462h72v-77h-241v77h73v536h-73v77h177l348 -561v484h-77v77z" />
    <glyph glyph-name="O" unicode="O" horiz-adv-x="752" 
d="M376 -10q-149 0 -240 97.5t-91 257.5q0 161 91 258t240 97t240 -97t91 -258q0 -160 -91 -257.5t-240 -97.5zM376 81q99 0 159 71.5t60 192.5t-60 192.5t-159 71.5t-159 -71.5t-60 -192.5t60 -192.5t159 -71.5z" />
    <glyph glyph-name="P" unicode="P" horiz-adv-x="631" 
d="M347 690q119 0 189.5 -60t70.5 -159t-70.5 -158.5t-188.5 -59.5h-116v-176l81 1v-78h-260v78h72v534h-72v78h294zM348 335q67 0 107 37t40 99q0 63 -40 100.5t-107 36.5h-116v-273h116z" />
    <glyph glyph-name="Q" unicode="Q" horiz-adv-x="737" 
d="M620 91q26 -15 54 -17.5t60 2.5v-80q-104 -19 -181 40q-77 -46 -177 -46q-149 0 -240 97.5t-91 257.5q0 161 91 258t240 97t240 -97t91 -258q0 -156 -87 -254zM157 345q0 -121 60 -192.5t159 -71.5q55 0 102 25l-119 115l50 60l131 -122q55 72 55 186q0 121 -60 192.5
t-159 71.5t-159 -71.5t-60 -192.5z" />
    <glyph glyph-name="R" unicode="R" horiz-adv-x="679" 
d="M594 78h67v-78h-187v71l-138 213h-104v-207l76 1v-78h-255v78h72v534h-72v78h291q115 0 185.5 -56t70.5 -147q0 -70 -42.5 -120.5t-117.5 -70.5zM232 608v-245h113q67 0 107.5 34t40.5 90q0 54 -41 88t-107 33h-113z" />
    <glyph glyph-name="S" unicode="S" horiz-adv-x="603" 
d="M56 513q0 80 68 133.5t174 53.5q138 0 233 -91v-149h-85v103q-22 21 -61 35.5t-85 14.5q-59 0 -99.5 -27t-40.5 -72q0 -34 17 -58t45.5 -36.5t64 -24t73.5 -19t73.5 -23t64 -35t45.5 -55.5t17 -84q0 -90 -72 -139.5t-186 -49.5q-170 0 -249 100v133h85v-86
q51 -59 164 -59q69 0 112 25t43 76q0 35 -22 58.5t-57.5 36t-78.5 23t-85.5 25t-78 35.5t-57.5 60.5t-22 95.5z" />
    <glyph glyph-name="T" unicode="T" horiz-adv-x="631" 
d="M608 690v-197h-84v115h-154v-530h71v-78h-251v78h72v530h-155v-115h-84v197h585z" />
    <glyph glyph-name="U" unicode="U" horiz-adv-x="765" 
d="M38 612v78h249v-78h-71v-333q0 -94 45 -144t122 -50t121.5 50t44.5 144v333h-71v78h250v-78h-71v-333q0 -134 -75 -211.5t-199 -77.5q-125 0 -200 77.5t-75 211.5v333h-70z" />
    <glyph glyph-name="V" unicode="V" horiz-adv-x="721" 
d="M475 690h244v-75h-69l-222 -615h-135l-222 615h-70v75h249v-75h-67l180 -533l183 533h-71v75z" />
    <glyph glyph-name="W" unicode="W" horiz-adv-x="964" 
d="M719 690h244v-78h-71l-160 -612h-104l-142 548l-144 -548h-114l-152 612h-71v78h245v-78h-71l106 -499l159 573h91l148 -573l111 499h-75v78z" />
    <glyph glyph-name="X" unicode="X" horiz-adv-x="695" 
d="M611 75h59v-75h-247v75h73l-151 223l-149 -223h70v-75h-239v75h62l195 272l-189 268h-63v75h246v-75h-69l141 -217l148 217h-69v75h234v-75h-62l-188 -268z" />
    <glyph glyph-name="Y" unicode="Y" horiz-adv-x="664" 
d="M421 690h239v-75h-70l-204 -352v-185h70v-78h-250v78h72v190l-205 347h-66v75h243v-75h-65l150 -284l156 284h-70v75z" />
    <glyph glyph-name="Z" unicode="Z" horiz-adv-x="587" 
d="M459 179h83v-179h-500v64l369 544h-276v-96h-82v178h486v-58l-373 -550h293v97z" />
    <glyph glyph-name="bracketleft" unicode="[" horiz-adv-x="316" 
d="M91 -220v910h185v-78h-87v-754h87v-78h-185z" />
    <glyph glyph-name="backslash" unicode="\" horiz-adv-x="479" 
d="M119 780l339 -910h-94l-340 910h95z" />
    <glyph glyph-name="bracketright" unicode="]" horiz-adv-x="316" 
d="M224 -220h-184v78h88v754h-88v78h184v-910z" />
    <glyph glyph-name="asciicircum" unicode="^" horiz-adv-x="416" 
d="M367 572l-22 -53l-137 84l-137 -84l-22 53l159 128z" />
    <glyph glyph-name="underscore" unicode="_" horiz-adv-x="573" 
d="M43 0h488v-84h-488v84z" />
    <glyph glyph-name="grave" unicode="`" horiz-adv-x="563" 
d="M300 718l212 -108l-27 -62l-224 74z" />
    <glyph glyph-name="a" unicode="a" horiz-adv-x="549" 
d="M520 87l13 -75q-25 -17 -67 -17q-40 0 -65.5 21.5t-31.5 57.5q-1 4 -1 12v13h-2q-20 -51 -68 -80t-113 -29t-106.5 34.5t-41.5 91.5q0 81 81.5 128.5t231.5 51.5v27q0 48 -29 77t-74 29q-40 0 -68.5 -19.5t-34.5 -51.5l-88 23q5 54 58.5 94.5t136.5 40.5q93 0 150 -53.5
t57 -155.5v-189q0 -38 33 -38q10 0 29 7zM216 72q51 0 92.5 43t41.5 94v14q-205 -7 -205 -91q0 -60 71 -60z" />
    <glyph glyph-name="b" unicode="b" horiz-adv-x="602" 
d="M347 515q98 0 156 -71t58 -189q0 -120 -66 -192.5t-174 -72.5q-49 0 -91 17.5t-64 49.5l-10 -57h-79v648h-74v75l147 -1q34 0 34 -35l-1 -215q0 -28 -2 -44h3q21 39 63 63t100 24zM304 79q70 0 109.5 47t39.5 129q0 80 -35 126t-98 46q-60 0 -98.5 -48.5t-38.5 -125.5
v-125q40 -49 121 -49z" />
    <glyph glyph-name="c" unicode="c" horiz-adv-x="544" 
d="M41 253q0 110 68.5 186.5t187.5 76.5q130 0 198 -76v-113h-96v62q-33 40 -103 40q-71 0 -109 -49.5t-38 -126.5q0 -80 38.5 -128t110.5 -48q42 0 77 20t51 52l85 -36q-21 -57 -76.5 -90t-136.5 -33q-119 0 -188 71.5t-69 191.5z" />
    <glyph glyph-name="d" unicode="d" horiz-adv-x="627" 
d="M590 88l14 -76q-27 -17 -70 -17q-46 0 -69.5 24.5t-26.5 56.5q-1 7 0 24h-2q-21 -48 -69 -79.5t-111 -31.5q-98 0 -156 72t-58 189t68.5 191.5t180.5 74.5q78 0 130 -46v179h-73v74h145q35 0 35 -34v-572q0 -17 10 -26.5t24 -9.5t28 7zM421 263v116q-40 50 -120 50
q-71 0 -111 -49t-40 -130q0 -77 35 -125.5t99 -48.5q63 0 100 53.5t37 133.5z" />
    <glyph glyph-name="e" unicode="e" horiz-adv-x="553" 
d="M284 515q118 1 175.5 -75t52.5 -211h-364q6 -68 46 -110t107 -42q45 0 80.5 19.5t51.5 51.5l78 -41q-20 -54 -77.5 -85.5t-132.5 -31.5q-116 0 -188 73.5t-72 189.5q0 114 67.5 188t175.5 74zM151 300h261q-3 55 -34 93.5t-90 38.5q-53 0 -89.5 -36t-47.5 -96z" />
    <glyph glyph-name="f" unicode="f" horiz-adv-x="373" 
d="M301 647q-34 0 -56 -24t-22 -70v-47h138v-84h-138v-347h79v-75h-260v75h75v347h-84v84h84v48q0 82 49 129t128 47q56 0 96 -25l-20 -78q-37 20 -69 20z" />
    <glyph glyph-name="g" unicode="g" horiz-adv-x="608" 
d="M453 506h78v-506q0 -104 -67.5 -162t-180.5 -58q-97 0 -179 45l20 84q77 -43 159 -43q70 0 111 34t41 100v51q0 30 2 45h-3q-18 -50 -63 -78t-111 -28q-98 0 -158 72.5t-60 187.5q0 119 70 192t181 73q97 0 148 -66zM425 257v122q-19 22 -52.5 35.5t-69.5 13.5
q-71 0 -112.5 -48.5t-41.5 -129.5q0 -78 37.5 -125.5t100.5 -47.5q62 0 100 48.5t38 131.5z" />
    <glyph glyph-name="h" unicode="h" horiz-adv-x="660" 
d="M382 516q86 0 136 -58t50 -157v-226h73v-75h-180v283q0 64 -29.5 101t-86.5 37q-63 0 -101.5 -53t-38.5 -141v-152h76v-75h-256v75h74v563h-74v82h136q35 0 35 -34v-247q0 -11 -3 -47h3q45 124 186 124z" />
    <glyph glyph-name="i" unicode="i" horiz-adv-x="322" 
d="M171 564q-32 0 -54.5 22t-22.5 54q0 30 22.5 52t54.5 22q30 0 52 -22t22 -52q0 -32 -22 -54t-52 -22zM188 506q34 0 34 -34v-397h73v-75h-254v75h75v355l-75 1v75h147z" />
    <glyph glyph-name="j" unicode="j" horiz-adv-x="279" 
d="M147 564q-32 0 -54.5 22t-22.5 54q0 30 22.5 52t54.5 22q30 0 52 -22t22 -52q0 -32 -22 -54t-52 -22zM-46 -175l19 78q29 -16 64 -16q27 0 43.5 19t16.5 53v472h-71v75h143q34 0 34 -34v-499q0 -81 -42.5 -126t-118.5 -45q-54 0 -88 23z" />
    <glyph glyph-name="k" unicode="k" horiz-adv-x="597" 
d="M205 686v-611h62v-75h-242v75h75v570h-75v75h146q34 0 34 -34zM501 431l-174 -159l186 -197h54v-75h-170v69l-173 192v19l162 151h-47v75h228v-75h-66z" />
    <glyph glyph-name="l" unicode="l" horiz-adv-x="308" 
d="M173 720q34 0 34 -34v-611h76v-75h-258v75h76v564h-75v81h147z" />
    <glyph glyph-name="m" unicode="m" horiz-adv-x="993" 
d="M178 506q34 0 34 -34v-31q0 -29 -3 -52h5q49 127 177 127q127 0 154 -131h2q45 131 178 131q82 0 128.5 -55.5t46.5 -149.5v-236h74v-75h-180v292q0 59 -27.5 95t-77.5 36q-56 0 -93 -57.5t-37 -142.5v-148h73v-75h-177v292q0 60 -27 95.5t-77 35.5q-56 0 -93 -57
t-37 -143v-148h76v-75h-255v75h73v349h-73v82h136z" />
    <glyph glyph-name="n" unicode="n" horiz-adv-x="676" 
d="M399 516q85 0 135 -58t50 -157v-226h73v-75h-179v283q0 65 -30 102.5t-87 37.5q-63 0 -101.5 -55.5t-38.5 -141.5v-151h76v-75h-256v75h74v352h-74v79h136q34 0 34 -34v-31q0 -30 -3 -48h3q52 123 188 123z" />
    <glyph glyph-name="o" unicode="o" horiz-adv-x="607" 
d="M304 -10q-118 0 -190.5 73t-72.5 190q0 118 72.5 190.5t190.5 72.5t190 -72.5t72 -190.5q0 -117 -72 -190t-190 -73zM304 78q71 0 112 48t41 127t-41 127t-112 48q-72 0 -113.5 -48t-41.5 -127t41.5 -127t113.5 -48z" />
    <glyph glyph-name="p" unicode="p" horiz-adv-x="626" 
d="M376 515q93 0 150 -71.5t57 -188.5q0 -121 -67 -193t-180 -72q-82 0 -134 52v-188h81v-74h-256v74h72v571h-73v81h136q16 0 25.5 -9t8.5 -25l-1 -22q-3 -44 -3 -45h3q47 111 181 110zM327 79q71 0 110 46.5t39 129.5q0 79 -35.5 125.5t-97.5 46.5t-99.5 -48t-37.5 -135
v-117q42 -48 121 -48z" />
    <glyph glyph-name="q" unicode="q" horiz-adv-x="608" 
d="M531 -146h74v-74h-255v74h85v199q0 30 2 44h-3q-17 -49 -62 -78t-112 -29q-98 0 -158 71.5t-60 188.5q0 120 69 192.5t182 72.5q42 0 81.5 -15.5t62.5 -42.5l13 49h81v-652zM287 77q62 0 100 47t38 132v122q-40 50 -123 50q-70 0 -111.5 -48.5t-41.5 -129.5
q0 -78 37.5 -125.5t100.5 -47.5z" />
    <glyph glyph-name="r" unicode="r" horiz-adv-x="435" 
d="M407 400q-31 9 -52 9q-65 0 -99.5 -54.5t-34.5 -138.5v-141h81v-75h-261v75h74v349h-74v82h137q34 0 34 -34v-41q0 -7 -3 -52h3q16 61 58 99t111 38q20 0 41 -7z" />
    <glyph glyph-name="s" unicode="s" horiz-adv-x="498" 
d="M243 516q126 0 195 -50v-120h-91v63q-42 25 -100 25q-92 0 -92 -56q0 -31 31 -50t75.5 -30.5t89 -27t75.5 -50t31 -87.5q0 -68 -58 -105t-151 -37q-132 0 -200 68v107h91v-65q43 -29 110 -29q104 0 104 61q0 31 -31 49.5t-75.5 29.5t-88.5 25.5t-75 49.5t-31 91
q0 65 51 101.5t140 36.5z" />
    <glyph glyph-name="t" unicode="t" horiz-adv-x="374" 
d="M127 640h76v-134h147v-75h-147l-1 -268q0 -41 18 -62.5t48 -21.5q35 0 65 15l19 -80q-36 -22 -98 -22q-158 0 -158 182v257h-75v75h72z" />
    <glyph glyph-name="u" unicode="u" horiz-adv-x="639" 
d="M603 85l14 -74q-27 -15 -66 -15q-40 0 -65 20t-33 52q-3 15 -3 32h-2q-21 -51 -69 -80.5t-105 -29.5q-87 0 -134 56t-47 156v230h-74v74h146q35 0 35 -34v-253q0 -65 26 -100.5t74 -35.5q55 0 94.5 50t39.5 110v189h-78v74h151q34 0 34 -34v-356q0 -38 33 -38q13 0 29 7z
" />
    <glyph glyph-name="v" unicode="v" horiz-adv-x="614" 
d="M607 506v-74h-68l-169 -432h-120l-173 432h-71v74h241v-74h-54l98 -282l21 -74l21 75l102 281h-55v74h227z" />
    <glyph glyph-name="w" unicode="w" horiz-adv-x="848" 
d="M842 506v-76h-65l-135 -430h-111l-107 377l-110 -377h-107l-136 430h-64v76h224v-76h-56l87 -326l115 398h96l112 -403l88 331h-56v76h225z" />
    <glyph glyph-name="x" unicode="x" horiz-adv-x="610" 
d="M514 75h69v-75h-181v63l-98 147l-92 -139h63v-71h-248v75h75l139 185l-132 172h-2l-75 -1v75h190v-71l85 -130l85 128h-57v73h242v-75l-74 1l-132 -171z" />
    <glyph glyph-name="y" unicode="y" horiz-adv-x="601" 
d="M594 506v-74h-70l-239 -630h-173v83h111l40 106l-182 441h-73v74h239v-74h-54l115 -335l115 335h-58v74h229z" />
    <glyph glyph-name="z" unicode="z" horiz-adv-x="519" 
d="M396 163h81v-163h-441v46l305 383h-208v-85h-80v162h415v-59l-294 -369h222v85z" />
    <glyph glyph-name="braceleft" unicode="{" horiz-adv-x="295" 
d="M194 353q0 -45 -14.5 -72.5t-54.5 -34.5q69 -14 69 -111v-203q0 -61 64 -61v-91q-73 0 -116 36.5t-43 98.5v220q0 76 -70 78v72q33 0 51.5 18.5t18.5 49.5v207q0 65 43.5 102.5t115.5 37.5v-91q-64 0 -64 -65v-191z" />
    <glyph glyph-name="bar" unicode="|" horiz-adv-x="287" 
d="M196 690v-910h-105v910h105z" />
    <glyph glyph-name="braceright" unicode="}" horiz-adv-x="295" 
d="M101 353v191q0 65 -63 65v91q72 0 115 -37.5t43 -102.5v-207q0 -31 18.5 -49.5t51.5 -18.5v-72q-70 -2 -70 -78v-220q0 -62 -42.5 -98.5t-115.5 -36.5v91q63 1 63 61v203q0 46 14.5 74.5t56.5 36.5q-42 7 -56.5 34t-14.5 73z" />
    <glyph glyph-name="asciitilde" unicode="~" horiz-adv-x="528" 
d="M354 250q-42 0 -90.5 20.5t-73.5 20.5q-44 0 -44 -36h-80q1 55 30 87.5t81 32.5q39 0 88.5 -22t77.5 -22q19 0 30.5 8t11.5 21h80q-1 -52 -30 -81t-81 -29z" />
    <glyph glyph-name="exclamdown" unicode="&#xa1;" horiz-adv-x="270" 
d="M135 366q-31 0 -53.5 22t-22.5 54q0 30 22.5 52t53.5 22t53 -22t22 -52q0 -32 -21.5 -54t-53.5 -22zM180 299l7 -519h-103l8 519h88z" />
    <glyph glyph-name="cent" unicode="&#xa2;" horiz-adv-x="551" 
d="M512 190q-19 -51 -65.5 -83t-113.5 -39l12 -99h-100l13 101q-99 14 -157 88t-58 186t58.5 186t156.5 88l-14 101h100l-13 -99q107 -9 168 -70v-125h-96l-1 71q-38 38 -103 38q-66 0 -106.5 -52.5t-40.5 -137.5t41 -137.5t108 -52.5q41 0 75 20.5t50 52.5z" />
    <glyph glyph-name="sterling" unicode="&#xa3;" horiz-adv-x="625" 
d="M494 174h84v-174h-530v78h72v204h-84v72h84v106q0 120 61.5 180t164.5 60q127 0 209 -76l-1 -170h-84v112q-53 45 -125 45q-51 0 -85 -37.5t-34 -109.5v-110h212l-10 -72h-202v-200h268v92z" />
    <glyph glyph-name="currency" unicode="&#xa4;" horiz-adv-x="664" 
d="M572 339q0 -87 -50 -148l93 -71l-72 -72l-74 97q-60 -35 -137 -35t-137 35l-75 -97l-71 72l93 71q-50 61 -50 148q0 86 50 147l-93 72l71 71l76 -98q56 35 136 35q79 0 136 -34l75 97l72 -71l-93 -72q50 -59 50 -147zM332 197q63 0 102 39.5t39 102.5q0 62 -39 100.5
t-102 38.5t-102 -38.5t-39 -100.5q0 -63 39 -102.5t102 -39.5z" />
    <glyph glyph-name="yen" unicode="&#xa5;" horiz-adv-x="690" 
d="M436 690h239v-75h-70l-164 -282h106v-61h-141l-5 -9v-48h146v-61h-146v-76h70v-78h-250v78h72v76h-157v61h157v53l-2 4h-155v61h119l-167 282h-66v75h243v-75h-65l149 -282h2l155 282h-70v75z" />
    <glyph glyph-name="brokenbar" unicode="&#xa6;" horiz-adv-x="287" 
d="M91 309v381h105v-381h-105zM196 158v-378h-105v378h105z" />
    <glyph glyph-name="section" unicode="&#xa7;" horiz-adv-x="606" 
d="M58 513q0 79 68 133t171 54q139 0 233 -91v-149h-85v103q-56 50 -146 50q-59 0 -96.5 -26.5t-37.5 -72.5q0 -48 40.5 -74t98.5 -39t116 -30t98.5 -61.5t40.5 -119.5l-107 18q0 45 -40.5 69.5t-98.5 36.5t-116 28t-98.5 58t-40.5 113zM58 280l107 -19q0 -31 21.5 -50.5
t56.5 -30t77 -18.5t84 -20t77 -31t56.5 -55t21.5 -88q0 -89 -72 -138.5t-186 -49.5q-171 0 -249 100v133h85v-86q53 -60 164 -60q68 0 109.5 25t41.5 76q0 33 -21.5 54.5t-56.5 32t-77 18.5t-84 20.5t-77 32.5t-56.5 59t-21.5 95z" />
    <glyph glyph-name="dieresis" unicode="&#xa8;" horiz-adv-x="427" 
d="M127 564q-29 0 -49 19.5t-20 47.5q0 26 20.5 46t48.5 20q27 0 46.5 -20t19.5 -46q0 -28 -19.5 -47.5t-46.5 -19.5zM305 564q-29 0 -49 19.5t-20 47.5q0 27 20 46.5t49 19.5q26 0 46 -20t20 -46q0 -28 -19.5 -47.5t-46.5 -19.5z" />
    <glyph glyph-name="copyright" unicode="&#xa9;" horiz-adv-x="803" 
d="M403 -10q-149 0 -254.5 103t-105.5 252q0 150 105.5 252.5t254.5 102.5q147 0 252 -102.5t105 -252.5q0 -149 -105 -252t-252 -103zM403 52q121 0 206 84.5t85 208.5t-85 209t-206 85q-123 0 -209 -85t-86 -209t85.5 -208.5t209.5 -84.5zM206 347q1 90 56.5 145.5
t145.5 55.5q104 0 160 -61v-105h-80v50q-25 36 -81 36q-46 0 -74 -33t-28 -88q1 -55 29.5 -89t74.5 -34q59 0 87 55l79 -39q-17 -43 -60.5 -69t-105.5 -26q-90 0 -146.5 56t-56.5 146z" />
    <glyph glyph-name="ordfeminine" unicode="&#xaa;" horiz-adv-x="483" 
d="M438 368l10 -71q-19 -13 -58 -13q-65 0 -76 64q-1 3 0 9.5t1 10.5h-2q-15 -41 -56.5 -65t-92.5 -24q-52 0 -86.5 28.5t-34.5 72.5q0 65 67 106t186 45v14q0 35 -21 56t-58 21q-33 0 -55 -16t-26 -44l-75 19q4 49 47.5 84t111.5 35q75 0 122.5 -43t47.5 -124v-142
q0 -29 24 -29q10 0 24 6zM194 352q41 0 72 33t31 70v19q-81 -3 -120 -25t-39 -56q0 -41 56 -41z" />
    <glyph glyph-name="guillemotleft" unicode="&#xab;" horiz-adv-x="514" 
d="M260 505l-130 -170l130 -170h-109l-115 155v29l115 156h109zM465 505l-130 -170l130 -170h-109l-115 155v29l115 156h109z" />
    <glyph glyph-name="registered" unicode="&#xae;" horiz-adv-x="803" 
d="M403 700q147 0 252 -102.5t105 -252.5q0 -149 -105 -252t-252 -103q-149 0 -254.5 103t-105.5 252q0 150 105.5 252.5t254.5 102.5zM403 52q121 0 206 84.5t85 208.5t-85 209t-206 85q-123 0 -209 -85t-86 -209t85.5 -208.5t209.5 -84.5zM485 314l70 -96h31v-69h-117v48
l-69 107h-50v-86h36v-69h-146v69h30v266h-30v69h174q76 0 122 -33t46 -90q0 -41 -26 -71.5t-71 -44.5zM350 486v-119h61q77 0 77 63q0 56 -77 56h-61z" />
    <glyph glyph-name="macron" unicode="&#xaf;" horiz-adv-x="494" 
d="M170 670h238v-83h-238v83z" />
    <glyph glyph-name="degree" unicode="&#xb0;" horiz-adv-x="486" 
d="M243 319q-91 0 -148 55t-57 136t57 135.5t148 54.5t148 -54.5t57 -135.5t-57 -136t-148 -55zM243 400q48 0 78.5 32.5t30.5 77.5t-31 77.5t-78 32.5q-48 0 -79 -32.5t-31 -77.5t31 -77.5t79 -32.5z" />
    <glyph glyph-name="plusminus" unicode="&#xb1;" horiz-adv-x="560" 
d="M59 450h171v171h87l-1 -171h173v-86h-172l-1 -172h-86v172l-171 -1v87zM74 120h429v-86l-429 -1v87z" />
    <glyph glyph-name="acute" unicode="&#xb4;" horiz-adv-x="545" 
d="M388 714l38 -94l-224 -74l-25 60z" />
    <glyph glyph-name="paragraph" unicode="&#xb6;" horiz-adv-x="662" 
d="M616 690v-77h-74v-708h-79v708h-105v-704h-88v376h-34q-95 0 -151.5 55t-56.5 151q0 92 59 145.5t165 53.5h364z" />
    <glyph glyph-name="periodcentered" unicode="&#xb7;" horiz-adv-x="261" 
d="M132 195q-32 0 -54.5 22t-22.5 54q0 30 22.5 52.5t54.5 22.5q30 0 52 -22.5t22 -52.5q0 -31 -22 -53.5t-52 -22.5z" />
    <glyph glyph-name="cedilla" unicode="&#xb8;" horiz-adv-x="565" 
d="M310 -43q29 0 47.5 -21t18.5 -55q0 -35 -28 -58t-73 -23q-49 0 -84 23l19 48q27 -19 56 -19q40 0 40 31t-40 31h-34l14 91h70z" />
    <glyph glyph-name="ordmasculine" unicode="&#xba;" horiz-adv-x="500" 
d="M249 279q-93 0 -151.5 59t-58.5 152t58 151.5t152 58.5t153 -58.5t59 -151.5t-59 -152t-153 -59zM249 360q53 0 84.5 36t31.5 94t-31.5 94t-84.5 36q-52 0 -83.5 -36t-31.5 -94t31.5 -94t83.5 -36z" />
    <glyph glyph-name="guillemotright" unicode="&#xbb;" horiz-adv-x="514" 
d="M273 349v-29l-115 -155h-109l130 170l-130 170h109zM363 505l115 -156v-29l-115 -155h-109l130 170l-130 170h109z" />
    <glyph glyph-name="onequarter" unicode="&#xbc;" horiz-adv-x="636" 
d="M213 399v-62h-168v62h44v229h-44v62h125v-291h43zM459 632l70 -41l-330 -534l-70 42zM556 135h45v-60h-45v-75h-77v75h-146v56l129 220h94v-216zM404 135h79v140z" />
    <glyph glyph-name="onehalf" unicode="&#xbd;" horiz-adv-x="700" 
d="M212 399v-62h-167v62h44v229h-44v62h126v-291h41zM458 632l70 -41l-330 -534l-70 42zM593 97h68v-96h-254v34l120 138q31 34 41 53t10 37q0 15 -12 24.5t-31 9.5q-36 0 -55 -21v-49h-64v85q45 47 124 47q50 0 82.5 -24t32.5 -66q0 -28 -15 -54.5t-55 -72.5l-72 -82h80v37
z" />
    <glyph glyph-name="threequarters" unicode="&#xbe;" horiz-adv-x="687" 
d="M297 433q0 -43 -37.5 -71.5t-89.5 -27.5q-42 0 -77 13t-51 34v60h61v-28q23 -20 60 -21q27 0 43.5 13t16.5 36q0 46 -72 46h-30v56h30q29 0 47.5 14t18.5 38q0 20 -14 32t-39 12q-34 0 -56 -20v-45h-63v77q44 47 122 47q52 0 86.5 -25.5t34.5 -66.5q0 -65 -60 -87
q69 -20 69 -86zM507 632l70 -41l-330 -534l-70 42zM606 136h45v-61h-45v-75h-77v75h-146v59l129 217h94v-215zM457 136h76v137z" />
    <glyph glyph-name="questiondown" unicode="&#xbf;" horiz-adv-x="502" 
d="M262 365q-32 0 -54.5 22.5t-22.5 54.5q0 29 23 51.5t54 22.5q30 0 52 -22t22 -52q0 -32 -21.5 -54.5t-52.5 -22.5zM27 -5q0 33 11 61.5t28.5 48t38.5 38t41 35t36 34.5t24.5 42t4.5 52h105q4 -41 -7.5 -74t-32 -53t-45.5 -41t-47 -38t-36.5 -43t-14.5 -57q0 -49 32 -78
t86 -29q73 0 132 51v102h84v-154q-93 -86 -220 -86q-99 0 -159.5 53t-60.5 136z" />
    <glyph glyph-name="Agrave" unicode="&#xc0;" horiz-adv-x="718" 
d="M473 790l-24 -66l-237 61l34 102zM648 78h69v-78h-252v78h71l-49 139h-262l-47 -139h72v-78h-246v78h69l218 612h130zM254 303h203l-103 295z" />
    <glyph glyph-name="Aacute" unicode="&#xc1;" horiz-adv-x="718" 
d="M497 790l-236 -65l-22 63l224 101zM648 78h69v-78h-252v78h71l-49 139h-262l-47 -139h72v-78h-246v78h69l218 612h130zM254 303h203l-103 295z" />
    <glyph glyph-name="Acircumflex" unicode="&#xc2;" horiz-adv-x="718" 
d="M353 786l-137 -54l-23 59l160 92l159 -92l-23 -59zM648 78h69v-78h-252v78h71l-49 139h-262l-47 -139h72v-78h-246v78h69l218 612h130zM254 303h203l-103 295z" />
    <glyph glyph-name="Atilde" unicode="&#xc3;" horiz-adv-x="718" 
d="M274 757h-79q-8 51 14 83t68 32q32 0 70.5 -16.5t54.5 -16.5q30 0 30 23h79q5 -50 -16 -79.5t-66 -29.5q-33 0 -71.5 15.5t-55.5 15.5q-28 0 -28 -27zM648 78h69v-78h-252v78h71l-49 139h-262l-47 -139h72v-78h-246v78h69l218 612h130zM254 303h203l-103 295z" />
    <glyph glyph-name="Adieresis" unicode="&#xc4;" horiz-adv-x="718" 
d="M267 733q-29 0 -49.5 20t-20.5 49q0 28 20.5 48t49.5 20q28 0 48.5 -20t20.5 -48q0 -29 -20 -49t-49 -20zM444 733q-30 0 -50.5 20t-20.5 49q0 28 20.5 48t50.5 20q28 0 48 -20t20 -48q0 -29 -20 -49t-48 -20zM648 78h69v-78h-252v78h71l-49 139h-262l-47 -139h72v-78
h-246v78h69l218 612h130zM254 303h203l-103 295z" />
    <glyph glyph-name="Aring" unicode="&#xc5;" horiz-adv-x="718" 
d="M356 721q-43 0 -71 27.5t-28 68.5q0 39 28.5 66t70.5 27q41 0 68 -27t27 -66q0 -41 -27 -68.5t-68 -27.5zM356 846q-14 0 -23 -8.5t-9 -21.5q0 -14 9 -23t23 -9q13 0 21.5 9t8.5 23t-8 22t-22 8zM648 78h69v-78h-252v78h71l-49 139h-262l-47 -139h72v-78h-246v78h69
l218 612h130zM254 303h203l-103 295z" />
    <glyph glyph-name="AE" unicode="&#xc6;" horiz-adv-x="992" 
d="M860 174h84v-174h-530v78h71v132h-236l-75 -132h67v-78h-246v78h68l359 612h517v-178h-84v96h-263v-214h249v-84h-249v-228h268v92zM297 294h188v329z" />
    <glyph glyph-name="Ccedilla" unicode="&#xc7;" horiz-adv-x="683" 
d="M631 74q-77 -71 -221 -82l-4 -35q29 0 47.5 -21t18.5 -55q0 -35 -28 -58t-73 -23q-49 0 -84 23l19 48q27 -19 56 -19q40 0 40 31t-40 31h-34l12 77q-133 11 -214.5 108t-81.5 246q0 160 88 257.5t237 97.5q159 0 257 -87l-1 -165h-84v109q-69 52 -173 52q-94 0 -153 -73
t-59 -191t59.5 -191t155.5 -73q110 0 176 47v101h84v-155z" />
    <glyph glyph-name="Egrave" unicode="&#xc8;" horiz-adv-x="633" 
d="M457 790l-24 -66l-237 61l34 102zM499 174h84v-174h-530v78h72v534h-72v78h526v-178h-84v96h-263v-214h250v-83h-250v-229h267v92z" />
    <glyph glyph-name="Eacute" unicode="&#xc9;" horiz-adv-x="633" 
d="M481 790l-236 -65l-22 63l224 101zM499 174h84v-174h-530v78h72v534h-72v78h526v-178h-84v96h-263v-214h250v-83h-250v-229h267v92z" />
    <glyph glyph-name="Ecircumflex" unicode="&#xca;" horiz-adv-x="633" 
d="M337 786l-137 -54l-23 59l160 92l159 -92l-23 -59zM499 174h84v-174h-530v78h72v534h-72v78h526v-178h-84v96h-263v-214h250v-83h-250v-229h267v92z" />
    <glyph glyph-name="Edieresis" unicode="&#xcb;" horiz-adv-x="633" 
d="M251 733q-29 0 -49.5 20t-20.5 49q0 28 20.5 48t49.5 20q28 0 48.5 -20t20.5 -48q0 -29 -20 -49t-49 -20zM428 733q-30 0 -50.5 20t-20.5 49q0 28 20.5 48t50.5 20q28 0 48 -20t20 -48q0 -29 -20 -49t-48 -20zM499 174h84v-174h-530v78h72v534h-72v78h526v-178h-84v96
h-263v-214h250v-83h-250v-229h267v92z" />
    <glyph glyph-name="Igrave" unicode="&#xcc;" horiz-adv-x="359" 
d="M70 887l227 -97l-24 -66l-237 61zM54 0v78h71v534h-71v78h250v-78h-70v-534h70v-78h-250z" />
    <glyph glyph-name="Iacute" unicode="&#xcd;" horiz-adv-x="359" 
d="M287 889l34 -99l-236 -65l-22 63zM54 0v78h71v534h-71v78h250v-78h-70v-534h70v-78h-250z" />
    <glyph glyph-name="Icircumflex" unicode="&#xce;" horiz-adv-x="359" 
d="M177 883l159 -92l-23 -59l-136 54l-137 -54l-23 59zM54 612v78h250v-78h-70v-534h70v-78h-250v78h71v534h-71z" />
    <glyph glyph-name="Idieresis" unicode="&#xcf;" horiz-adv-x="359" 
d="M91 733q-29 0 -49.5 20t-20.5 49q0 28 20.5 48t49.5 20q28 0 48.5 -20t20.5 -48q0 -29 -20 -49t-49 -20zM268 733q-30 0 -50.5 20t-20.5 49q0 28 20.5 48t50.5 20q28 0 48 -20t20 -48q0 -29 -20 -49t-48 -20zM54 0v78h71v534h-71v78h250v-78h-70v-534h70v-78h-250z" />
    <glyph glyph-name="Eth" unicode="&#xd0;" horiz-adv-x="716" 
d="M350 690q147 0 233 -94t86 -255q0 -158 -84 -249.5t-235 -91.5h-297v78h72v234h-66v69h66v231h-72v78h297zM350 84q98 1 153.5 68t55.5 189q0 121 -56 194t-153 72h-118v-226h155v-69h-155v-228h118z" />
    <glyph glyph-name="Ntilde" unicode="&#xd1;" horiz-adv-x="788" 
d="M325 757h-79q-8 51 14 83t68 32q32 0 70.5 -16.5t54.5 -16.5q30 0 30 23h79q5 -50 -16 -79.5t-66 -29.5q-33 0 -71.5 15.5t-55.5 15.5q-28 0 -28 -27zM501 690h246v-77h-74v-613h-110l-341 539v-462h72v-77h-241v77h73v536h-73v77h177l348 -561v484h-77v77z" />
    <glyph glyph-name="Ograve" unicode="&#xd2;" horiz-adv-x="752" 
d="M267 887l227 -97l-24 -66l-237 61zM376 -10q-149 0 -240 97.5t-91 257.5q0 161 91 258t240 97t240 -97t91 -258q0 -160 -91 -257.5t-240 -97.5zM376 81q99 0 159 71.5t60 192.5t-60 192.5t-159 71.5t-159 -71.5t-60 -192.5t60 -192.5t159 -71.5z" />
    <glyph glyph-name="Oacute" unicode="&#xd3;" horiz-adv-x="752" 
d="M484 889l34 -99l-236 -65l-22 63zM376 -10q-149 0 -240 97.5t-91 257.5q0 161 91 258t240 97t240 -97t91 -258q0 -160 -91 -257.5t-240 -97.5zM376 81q99 0 159 71.5t60 192.5t-60 192.5t-159 71.5t-159 -71.5t-60 -192.5t60 -192.5t159 -71.5z" />
    <glyph glyph-name="Ocircumflex" unicode="&#xd4;" horiz-adv-x="752" 
d="M374 786l-137 -54l-23 59l160 92l159 -92l-23 -59zM376 700q149 0 240 -97t91 -258q0 -160 -91 -257.5t-240 -97.5t-240 97.5t-91 257.5q0 161 91 258t240 97zM376 81q99 0 159 71.5t60 192.5t-60 192.5t-159 71.5t-159 -71.5t-60 -192.5t60 -192.5t159 -71.5z" />
    <glyph glyph-name="Otilde" unicode="&#xd5;" horiz-adv-x="752" 
d="M450 753q-33 0 -71.5 15.5t-55.5 15.5q-28 0 -28 -27h-79q-8 51 14 83t68 32q32 0 70.5 -16.5t54.5 -16.5q30 0 30 23h79q5 -50 -16 -79.5t-66 -29.5zM376 -10q-149 0 -240 97.5t-91 257.5q0 161 91 258t240 97t240 -97t91 -258q0 -160 -91 -257.5t-240 -97.5zM376 81
q99 0 159 71.5t60 192.5t-60 192.5t-159 71.5t-159 -71.5t-60 -192.5t60 -192.5t159 -71.5z" />
    <glyph glyph-name="Odieresis" unicode="&#xd6;" horiz-adv-x="752" 
d="M288 733q-29 0 -49.5 20t-20.5 49q0 28 20.5 48t49.5 20q28 0 48.5 -20t20.5 -48q0 -29 -20 -49t-49 -20zM465 733q-30 0 -50.5 20t-20.5 49q0 28 20.5 48t50.5 20q28 0 48 -20t20 -48q0 -29 -20 -49t-48 -20zM376 -10q-149 0 -240 97.5t-91 257.5q0 161 91 258t240 97
t240 -97t91 -258q0 -160 -91 -257.5t-240 -97.5zM376 81q99 0 159 71.5t60 192.5t-60 192.5t-159 71.5t-159 -71.5t-60 -192.5t60 -192.5t159 -71.5z" />
    <glyph glyph-name="multiply" unicode="&#xd7;" horiz-adv-x="466" 
d="M53 185l125 124l-125 124l56 55l124 -123l123 123l57 -55l-125 -124l125 -124l-56 -56l-124 124l-124 -124z" />
    <glyph glyph-name="Oslash" unicode="&#xd8;" horiz-adv-x="752" 
d="M621 597q86 -97 86 -252q0 -160 -91 -257.5t-240 -97.5q-115 0 -198 60l-62 -77l-55 43l66 81q-82 98 -82 248q0 161 91 258t240 97q112 0 194 -57l57 70l55 -41zM157 345q0 -96 39 -163l311 383q-53 44 -131 44q-99 0 -159 -71.5t-60 -192.5zM376 81q99 0 159 71.5
t60 192.5q0 100 -42 168l-312 -385q56 -47 135 -47z" />
    <glyph glyph-name="Ugrave" unicode="&#xd9;" horiz-adv-x="765" 
d="M271 887l227 -97l-24 -66l-237 61zM38 612v78h249v-78h-71v-333q0 -94 45 -144t122 -50t121.5 50t44.5 144v333h-71v78h250v-78h-71v-333q0 -134 -75 -211.5t-199 -77.5q-125 0 -200 77.5t-75 211.5v333h-70z" />
    <glyph glyph-name="Uacute" unicode="&#xda;" horiz-adv-x="765" 
d="M488 889l34 -99l-236 -65l-22 63zM38 612v78h249v-78h-71v-333q0 -94 45 -144t122 -50t121.5 50t44.5 144v333h-71v78h250v-78h-71v-333q0 -134 -75 -211.5t-199 -77.5q-125 0 -200 77.5t-75 211.5v333h-70z" />
    <glyph glyph-name="Ucircumflex" unicode="&#xdb;" horiz-adv-x="765" 
d="M378 786l-137 -54l-23 59l160 92l159 -92l-23 -59zM478 690h250v-78h-71v-333q0 -134 -75 -211.5t-199 -77.5q-125 0 -200 77.5t-75 211.5v333h-70v78h249v-78h-71v-333q0 -94 45 -144t122 -50t121.5 50t44.5 144v333h-71v78z" />
    <glyph glyph-name="Udieresis" unicode="&#xdc;" horiz-adv-x="765" 
d="M292 733q-29 0 -49.5 20t-20.5 49q0 28 20.5 48t49.5 20q28 0 48.5 -20t20.5 -48q0 -29 -20 -49t-49 -20zM469 733q-30 0 -50.5 20t-20.5 49q0 28 20.5 48t50.5 20q28 0 48 -20t20 -48q0 -29 -20 -49t-48 -20zM38 612v78h249v-78h-71v-333q0 -94 45 -144t122 -50
t121.5 50t44.5 144v333h-71v78h250v-78h-71v-333q0 -134 -75 -211.5t-199 -77.5q-125 0 -200 77.5t-75 211.5v333h-70z" />
    <glyph glyph-name="Yacute" unicode="&#xdd;" horiz-adv-x="664" 
d="M479 790l-236 -65l-22 63l224 101zM421 690h239v-75h-70l-204 -352v-185h70v-78h-250v78h72v190l-205 347h-66v75h243v-75h-65l150 -284l156 284h-70v75z" />
    <glyph glyph-name="Thorn" unicode="&#xde;" horiz-adv-x="640" 
d="M54 0v78h71v534h-71v78h267v-78h-88v-57h114q114 0 185.5 -56.5t71.5 -147.5q0 -90 -71.5 -146.5t-185.5 -56.5h-114v-71h88v-77h-267zM233 227h114q65 0 105.5 34.5t40.5 89.5q0 56 -40.5 90.5t-104.5 33.5h-115v-248z" />
    <glyph glyph-name="germandbls" unicode="&#xdf;" horiz-adv-x="691" 
d="M475 417q0 -24 13.5 -44.5t33.5 -34.5t43.5 -33t43.5 -38t33.5 -51.5t13.5 -72.5q0 -71 -50.5 -111.5t-131.5 -40.5q-110 0 -177 69v106h91v-62q32 -32 87 -32q78 0 78 71q0 32 -18.5 57.5t-45 44.5t-53 39.5t-45 53.5t-18.5 76q0 42 27 75.5t74 49.5q-12 50 -46 78
t-85 28q-54 0 -87 -28t-33 -76v-541h-181v75h75v356h-84v75h84v36q0 85 61 136.5t162 51.5q112 0 173.5 -65t61.5 -176h-5q-49 -1 -72 -21.5t-23 -50.5z" />
    <glyph glyph-name="agrave" unicode="&#xe0;" horiz-adv-x="549" 
d="M370 610l-27 -62l-224 74l39 96zM520 87l13 -75q-25 -17 -67 -17q-40 0 -65.5 21.5t-31.5 57.5q-1 4 -1 12v13h-2q-20 -51 -68 -80t-113 -29t-106.5 34.5t-41.5 91.5q0 81 81.5 128.5t231.5 51.5v27q0 48 -29 77t-74 29q-40 0 -68.5 -19.5t-34.5 -51.5l-88 23
q5 54 58.5 94.5t136.5 40.5q93 0 150 -53.5t57 -155.5v-189q0 -38 33 -38q10 0 29 7zM216 72q51 0 92.5 43t41.5 94v14q-205 -7 -205 -91q0 -60 71 -60z" />
    <glyph glyph-name="aacute" unicode="&#xe1;" horiz-adv-x="549" 
d="M399 626l-224 -74l-25 60l211 108zM520 87l13 -75q-25 -17 -67 -17q-40 0 -65.5 21.5t-31.5 57.5q-1 4 -1 12v13h-2q-20 -51 -68 -80t-113 -29t-106.5 34.5t-41.5 91.5q0 81 81.5 128.5t231.5 51.5v27q0 48 -29 77t-74 29q-40 0 -68.5 -19.5t-34.5 -51.5l-88 23
q5 54 58.5 94.5t136.5 40.5q93 0 150 -53.5t57 -155.5v-189q0 -38 33 -38q10 0 29 7zM216 72q51 0 92.5 43t41.5 94v14q-205 -7 -205 -91q0 -60 71 -60z" />
    <glyph glyph-name="acircumflex" unicode="&#xe2;" horiz-adv-x="549" 
d="M263 601l-137 -52l-23 57l160 97l159 -97l-23 -57zM520 87l13 -75q-25 -17 -67 -17q-40 0 -65.5 21.5t-31.5 57.5q-1 4 -1 12v13h-2q-20 -51 -68 -80t-113 -29t-106.5 34.5t-41.5 91.5q0 81 81.5 128.5t231.5 51.5v27q0 48 -29 77t-74 29q-40 0 -68.5 -19.5t-34.5 -51.5
l-88 23q5 54 58.5 94.5t136.5 40.5q93 0 150 -53.5t57 -155.5v-189q0 -38 33 -38q10 0 29 7zM216 72q51 0 92.5 43t41.5 94v14q-205 -7 -205 -91q0 -60 71 -60z" />
    <glyph glyph-name="atilde" unicode="&#xe3;" horiz-adv-x="549" 
d="M188 575h-76q-8 50 13.5 80.5t65.5 30.5q31 0 68 -16t52 -16q29 0 29 23h76q5 -48 -15.5 -76.5t-63.5 -28.5q-31 0 -68 14.5t-54 14.5q-27 0 -27 -26zM520 87l13 -75q-25 -17 -67 -17q-40 0 -65.5 21.5t-31.5 57.5q-1 4 -1 12v13h-2q-20 -51 -68 -80t-113 -29
t-106.5 34.5t-41.5 91.5q0 81 81.5 128.5t231.5 51.5v27q0 48 -29 77t-74 29q-40 0 -68.5 -19.5t-34.5 -51.5l-88 23q5 54 58.5 94.5t136.5 40.5q93 0 150 -53.5t57 -155.5v-189q0 -38 33 -38q10 0 29 7zM216 72q51 0 92.5 43t41.5 94v14q-205 -7 -205 -91q0 -60 71 -60z
" />
    <glyph glyph-name="adieresis" unicode="&#xe4;" horiz-adv-x="549" 
d="M177 564q-29 0 -49 19.5t-20 47.5q0 26 20.5 46t48.5 20q27 0 46.5 -20t19.5 -46q0 -28 -19.5 -47.5t-46.5 -19.5zM355 564q-29 0 -49 19.5t-20 47.5q0 27 20 46.5t49 19.5q26 0 46 -20t20 -46q0 -28 -19.5 -47.5t-46.5 -19.5zM520 87l13 -75q-25 -17 -67 -17
q-40 0 -65.5 21.5t-31.5 57.5q-1 4 -1 12v13h-2q-20 -51 -68 -80t-113 -29t-106.5 34.5t-41.5 91.5q0 81 81.5 128.5t231.5 51.5v27q0 48 -29 77t-74 29q-40 0 -68.5 -19.5t-34.5 -51.5l-88 23q5 54 58.5 94.5t136.5 40.5q93 0 150 -53.5t57 -155.5v-189q0 -38 33 -38
q10 0 29 7zM216 72q51 0 92.5 43t41.5 94v14q-205 -7 -205 -91q0 -60 71 -60z" />
    <glyph glyph-name="aring" unicode="&#xe5;" horiz-adv-x="549" 
d="M264 549q-37 0 -61 24t-24 59q0 33 24.5 56.5t60.5 23.5q35 0 58.5 -23.5t23.5 -56.5q0 -35 -23.5 -59t-58.5 -24zM264 657q-12 0 -20 -7.5t-8 -18.5q0 -12 8 -20t20 -8q11 0 18.5 8t7.5 20q0 11 -7.5 18.5t-18.5 7.5zM520 87l13 -75q-25 -17 -67 -17q-40 0 -65.5 21.5
t-31.5 57.5q-1 4 -1 12v13h-2q-20 -51 -68 -80t-113 -29t-106.5 34.5t-41.5 91.5q0 81 81.5 128.5t231.5 51.5v27q0 48 -29 77t-74 29q-40 0 -68.5 -19.5t-34.5 -51.5l-88 23q5 54 58.5 94.5t136.5 40.5q93 0 150 -53.5t57 -155.5v-189q0 -38 33 -38q10 0 29 7zM216 72
q51 0 92.5 43t41.5 94v14q-205 -7 -205 -91q0 -60 71 -60z" />
    <glyph glyph-name="ae" unicode="&#xe6;" horiz-adv-x="864" 
d="M592 515q111 1 169.5 -77.5t53.5 -210.5h-352q6 -67 43.5 -108.5t101.5 -41.5q46 0 82.5 19t51.5 50l68 -46q-21 -48 -76 -79t-126 -31q-142 0 -211 111q-55 -113 -203 -113q-68 0 -112.5 35t-44.5 91q0 80 83.5 130t236.5 52v25q0 47 -30 76.5t-76 29.5q-43 0 -72 -19.5
t-35 -51.5l-88 22q5 55 59 95.5t139 40.5q108 0 166 -77q67 78 172 78zM465 297h250q-3 55 -33 95t-87 40q-50 0 -85 -37t-45 -98zM221 70q54 0 95 40t41 94v20q-212 -7 -212 -94q0 -60 76 -60z" />
    <glyph glyph-name="ccedilla" unicode="&#xe7;" horiz-adv-x="544" 
d="M511 113q-18 -50 -63.5 -82t-112.5 -39l-4 -35q29 0 47.5 -21t18.5 -55q0 -35 -28 -58t-73 -23q-49 0 -84 23l19 48q27 -19 56 -19q40 0 40 31t-40 31h-34l12 78q-104 10 -164 79.5t-60 181.5q0 110 68.5 186.5t187.5 76.5q130 0 198 -76v-113h-96v62q-33 40 -103 40
q-71 0 -109 -49.5t-38 -126.5q0 -80 38.5 -128t110.5 -48q42 0 77 20t51 52z" />
    <glyph glyph-name="egrave" unicode="&#xe8;" horiz-adv-x="553" 
d="M396 604l-27 -62l-224 74l39 96zM284 515q118 1 175.5 -75t52.5 -211h-364q6 -68 46 -110t107 -42q45 0 80.5 19.5t51.5 51.5l78 -41q-20 -54 -77.5 -85.5t-132.5 -31.5q-116 0 -188 73.5t-72 189.5q0 114 67.5 188t175.5 74zM151 300h261q-3 55 -34 93.5t-90 38.5
q-53 0 -89.5 -36t-47.5 -96z" />
    <glyph glyph-name="eacute" unicode="&#xe9;" horiz-adv-x="553" 
d="M425 620l-224 -74l-25 60l211 108zM284 515q118 1 175.5 -75t52.5 -211h-364q6 -68 46 -110t107 -42q45 0 80.5 19.5t51.5 51.5l78 -41q-20 -54 -77.5 -85.5t-132.5 -31.5q-116 0 -188 73.5t-72 189.5q0 114 67.5 188t175.5 74zM151 300h261q-3 55 -34 93.5t-90 38.5
q-53 0 -89.5 -36t-47.5 -96z" />
    <glyph glyph-name="ecircumflex" unicode="&#xea;" horiz-adv-x="553" 
d="M289 595l-137 -52l-23 57l160 97l159 -97l-23 -57zM284 515q118 1 175.5 -75t52.5 -211h-364q6 -68 46 -110t107 -42q45 0 80.5 19.5t51.5 51.5l78 -41q-20 -54 -77.5 -85.5t-132.5 -31.5q-116 0 -188 73.5t-72 189.5q0 114 67.5 188t175.5 74zM151 300h261
q-3 55 -34 93.5t-90 38.5q-53 0 -89.5 -36t-47.5 -96z" />
    <glyph glyph-name="edieresis" unicode="&#xeb;" horiz-adv-x="553" 
d="M203 558q-29 0 -49 19.5t-20 47.5q0 26 20.5 46t48.5 20q27 0 46.5 -20t19.5 -46q0 -28 -19.5 -47.5t-46.5 -19.5zM381 558q-29 0 -49 19.5t-20 47.5q0 27 20 46.5t49 19.5q26 0 46 -20t20 -46q0 -28 -19.5 -47.5t-46.5 -19.5zM284 515q118 1 175.5 -75t52.5 -211h-364
q6 -68 46 -110t107 -42q45 0 80.5 19.5t51.5 51.5l78 -41q-20 -54 -77.5 -85.5t-132.5 -31.5q-116 0 -188 73.5t-72 189.5q0 114 67.5 188t175.5 74zM151 300h261q-3 55 -34 93.5t-90 38.5q-53 0 -89.5 -36t-47.5 -96z" />
    <glyph glyph-name="igrave" unicode="&#xec;" horiz-adv-x="322" 
d="M65 718l212 -108l-27 -62l-224 74zM188 506q34 0 34 -34v-397h73v-75h-254v75h75v355l-75 1v75h147z" />
    <glyph glyph-name="iacute" unicode="&#xed;" horiz-adv-x="322" 
d="M268 720l38 -94l-224 -74l-25 60zM188 506q34 0 34 -34v-397h73v-75h-254v75h75v355l-75 1v75h147z" />
    <glyph glyph-name="icircumflex" unicode="&#xee;" horiz-adv-x="322" 
d="M170 703l159 -97l-23 -57l-136 52l-137 -52l-23 57zM222 472v-397h73v-75h-254v75h75v355l-75 1v75h147q34 0 34 -34z" />
    <glyph glyph-name="idieresis" unicode="&#xef;" horiz-adv-x="322" 
d="M84 564q-29 0 -49 19.5t-20 47.5q0 26 20.5 46t48.5 20q27 0 46.5 -20t19.5 -46q0 -28 -19.5 -47.5t-46.5 -19.5zM262 564q-29 0 -49 19.5t-20 47.5q0 27 20 46.5t49 19.5q26 0 46 -20t20 -46q0 -28 -19.5 -47.5t-46.5 -19.5zM188 506q34 0 34 -34v-397h73v-75h-254v75
h75v355l-75 1v75h147z" />
    <glyph glyph-name="eth" unicode="&#xf0;" horiz-adv-x="573" 
d="M363 624q164 -139 164 -361q0 -128 -64.5 -201t-176.5 -73q-109 0 -176.5 73t-67.5 188q0 107 63.5 170t164.5 65q72 2 126 -54q-35 82 -112 139l-104 -72l-40 53l84 58q-47 24 -96 42l59 75q67 -26 120 -60l99 68l38 -54zM285 76q66 0 105 45.5t39 129.5q0 28 -1 42
l-1 -1q-9 54 -46 85t-86 31q-66 0 -106 -43t-40 -115q0 -76 38 -125t98 -49z" />
    <glyph glyph-name="ntilde" unicode="&#xf1;" horiz-adv-x="676" 
d="M428 566q-32 0 -69 14.5t-53 14.5q-27 0 -27 -26h-76q-8 50 13.5 80.5t65.5 30.5q31 0 68 -16t52 -16q29 0 29 23h76q5 -48 -15.5 -76.5t-63.5 -28.5zM399 516q85 0 135 -58t50 -157v-226h73v-75h-179v283q0 65 -30 102.5t-87 37.5q-63 0 -101.5 -55.5t-38.5 -141.5v-151
h76v-75h-256v75h74v352h-74v79h136q34 0 34 -34v-31q0 -30 -3 -48h3q52 123 188 123z" />
    <glyph glyph-name="ograve" unicode="&#xf2;" horiz-adv-x="607" 
d="M199 712l212 -108l-27 -62l-224 74zM304 -10q-118 0 -190.5 73t-72.5 190q0 118 72.5 190.5t190.5 72.5t190 -72.5t72 -190.5q0 -117 -72 -190t-190 -73zM304 78q71 0 112 48t41 127t-41 127t-112 48q-72 0 -113.5 -48t-41.5 -127t41.5 -127t113.5 -48z" />
    <glyph glyph-name="oacute" unicode="&#xf3;" horiz-adv-x="607" 
d="M402 714l38 -94l-224 -74l-25 60zM304 -10q-118 0 -190.5 73t-72.5 190q0 118 72.5 190.5t190.5 72.5t190 -72.5t72 -190.5q0 -117 -72 -190t-190 -73zM304 78q71 0 112 48t41 127t-41 127t-112 48q-72 0 -113.5 -48t-41.5 -127t41.5 -127t113.5 -48z" />
    <glyph glyph-name="ocircumflex" unicode="&#xf4;" horiz-adv-x="607" 
d="M304 595l-137 -52l-23 57l160 97l159 -97l-23 -57zM304 516q118 0 190 -72.5t72 -190.5q0 -117 -72 -190t-190 -73t-190.5 73t-72.5 190q0 118 72.5 190.5t190.5 72.5zM304 78q71 0 112 48t41 127t-41 127t-112 48q-72 0 -113.5 -48t-41.5 -127t41.5 -127t113.5 -48z" />
    <glyph glyph-name="otilde" unicode="&#xf5;" horiz-adv-x="607" 
d="M378 566q-32 0 -69 14.5t-53 14.5q-27 0 -27 -26h-76q-8 50 13.5 80.5t65.5 30.5q31 0 68 -16t52 -16q29 0 29 23h76q5 -48 -15.5 -76.5t-63.5 -28.5zM304 -10q-118 0 -190.5 73t-72.5 190q0 118 72.5 190.5t190.5 72.5t190 -72.5t72 -190.5q0 -117 -72 -190t-190 -73z
M304 78q71 0 112 48t41 127t-41 127t-112 48q-72 0 -113.5 -48t-41.5 -127t41.5 -127t113.5 -48z" />
    <glyph glyph-name="odieresis" unicode="&#xf6;" horiz-adv-x="607" 
d="M217 558q-29 0 -49 19.5t-20 47.5q0 26 20.5 46t48.5 20q27 0 46.5 -20t19.5 -46q0 -28 -19.5 -47.5t-46.5 -19.5zM395 558q-29 0 -49 19.5t-20 47.5q0 27 20 46.5t49 19.5q26 0 46 -20t20 -46q0 -28 -19.5 -47.5t-46.5 -19.5zM304 -10q-118 0 -190.5 73t-72.5 190
q0 118 72.5 190.5t190.5 72.5t190 -72.5t72 -190.5q0 -117 -72 -190t-190 -73zM304 78q71 0 112 48t41 127t-41 127t-112 48q-72 0 -113.5 -48t-41.5 -127t41.5 -127t113.5 -48z" />
    <glyph glyph-name="divide" unicode="&#xf7;" horiz-adv-x="513" 
d="M258 478q-30 0 -50.5 20t-20.5 50q0 28 21 48t50 20q28 0 48 -20t20 -48q0 -30 -19.5 -50t-48.5 -20zM53 377h407v-90h-407v90zM258 42q-29 0 -50 20.5t-21 50.5q0 27 21 47.5t50 20.5q28 0 48 -20.5t20 -47.5q0 -30 -19.5 -50.5t-48.5 -20.5z" />
    <glyph glyph-name="oslash" unicode="&#xf8;" horiz-adv-x="607" 
d="M500 438q66 -72 66 -185q0 -117 -72 -190t-190 -73q-86 0 -149 40l-52 -61l-45 39l51 60q-68 71 -68 185q0 118 72.5 190.5t190.5 72.5q86 0 149 -40l45 53l47 -38zM149 253q0 -63 26 -106l216 256q-36 25 -87 25q-72 0 -113.5 -48t-41.5 -127zM304 78q71 0 112 48
t41 127q0 60 -25 105l-216 -255q38 -25 88 -25z" />
    <glyph glyph-name="ugrave" unicode="&#xf9;" horiz-adv-x="639" 
d="M197 712l212 -108l-27 -62l-224 74zM603 85l14 -74q-27 -15 -66 -15q-40 0 -65 20t-33 52q-3 15 -3 32h-2q-21 -51 -69 -80.5t-105 -29.5q-87 0 -134 56t-47 156v230h-74v74h146q35 0 35 -34v-253q0 -65 26 -100.5t74 -35.5q55 0 94.5 50t39.5 110v189h-78v74h151
q34 0 34 -34v-356q0 -38 33 -38q13 0 29 7z" />
    <glyph glyph-name="uacute" unicode="&#xfa;" horiz-adv-x="639" 
d="M400 714l38 -94l-224 -74l-25 60zM603 85l14 -74q-27 -15 -66 -15q-40 0 -65 20t-33 52q-3 15 -3 32h-2q-21 -51 -69 -80.5t-105 -29.5q-87 0 -134 56t-47 156v230h-74v74h146q35 0 35 -34v-253q0 -65 26 -100.5t74 -35.5q55 0 94.5 50t39.5 110v189h-78v74h151
q34 0 34 -34v-356q0 -38 33 -38q13 0 29 7z" />
    <glyph glyph-name="ucircumflex" unicode="&#xfb;" horiz-adv-x="639" 
d="M302 595l-137 -52l-23 57l160 97l159 -97l-23 -57zM603 85l14 -74q-27 -15 -66 -15q-40 0 -65 20t-33 52q-3 15 -3 32h-2q-21 -51 -69 -80.5t-105 -29.5q-87 0 -134 56t-47 156v230h-74v74h146q35 0 35 -34v-253q0 -65 26 -100.5t74 -35.5q55 0 94.5 50t39.5 110v189h-78
v74h151q34 0 34 -34v-356q0 -38 33 -38q13 0 29 7z" />
    <glyph glyph-name="udieresis" unicode="&#xfc;" horiz-adv-x="639" 
d="M216 558q-29 0 -49 19.5t-20 47.5q0 26 20.5 46t48.5 20q27 0 46.5 -20t19.5 -46q0 -28 -19.5 -47.5t-46.5 -19.5zM394 558q-29 0 -49 19.5t-20 47.5q0 27 20 46.5t49 19.5q26 0 46 -20t20 -46q0 -28 -19.5 -47.5t-46.5 -19.5zM603 85l14 -74q-27 -15 -66 -15
q-40 0 -65 20t-33 52q-3 15 -3 32h-2q-21 -51 -69 -80.5t-105 -29.5q-87 0 -134 56t-47 156v230h-74v74h146q35 0 35 -34v-253q0 -65 26 -100.5t74 -35.5q55 0 94.5 50t39.5 110v189h-78v74h151q34 0 34 -34v-356q0 -38 33 -38q13 0 29 7z" />
    <glyph glyph-name="yacute" unicode="&#xfd;" horiz-adv-x="601" 
d="M438 620l-224 -74l-25 60l211 108zM594 506v-74h-70l-239 -630h-173v83h111l40 106l-182 441h-73v74h239v-74h-54l115 -335l115 335h-58v74h229z" />
    <glyph glyph-name="thorn" unicode="&#xfe;" horiz-adv-x="604" 
d="M353 515q94 0 151 -71.5t57 -188.5q0 -121 -66 -193t-180 -72q-36 0 -73.5 14.5t-62.5 38.5v-189h81v-74h-255v74h72v784h-74v82h137q34 0 34 -34l-1 -237q0 -23 -3 -45h3q43 112 180 111zM305 79q71 0 109.5 46.5t38.5 129.5q0 79 -35 125.5t-97 46.5q-60 0 -99 -50
t-39 -124v-125q42 -49 122 -49z" />
    <glyph glyph-name="ydieresis" unicode="&#xff;" horiz-adv-x="601" 
d="M216 558q-29 0 -49 19.5t-20 47.5q0 26 20.5 46t48.5 20q27 0 46.5 -20t19.5 -46q0 -28 -19.5 -47.5t-46.5 -19.5zM394 558q-29 0 -49 19.5t-20 47.5q0 27 20 46.5t49 19.5q26 0 46 -20t20 -46q0 -28 -19.5 -47.5t-46.5 -19.5zM594 506v-74h-70l-239 -630h-173v83h111
l40 106l-182 441h-73v74h239v-74h-54l115 -335l115 335h-58v74h229z" />
    <glyph glyph-name="Amacron" unicode="&#x100;" horiz-adv-x="718" 
d="M484 844v-91h-261v91h261zM648 78h69v-78h-252v78h71l-49 139h-262l-47 -139h72v-78h-246v78h69l218 612h130zM254 303h203l-103 295z" />
    <glyph glyph-name="amacron" unicode="&#x101;" horiz-adv-x="549" 
d="M381 670v-83h-238v83h238zM520 87l13 -75q-25 -17 -67 -17q-40 0 -65.5 21.5t-31.5 57.5q-1 4 -1 12v13h-2q-20 -51 -68 -80t-113 -29t-106.5 34.5t-41.5 91.5q0 81 81.5 128.5t231.5 51.5v27q0 48 -29 77t-74 29q-40 0 -68.5 -19.5t-34.5 -51.5l-88 23q5 54 58.5 94.5
t136.5 40.5q93 0 150 -53.5t57 -155.5v-189q0 -38 33 -38q10 0 29 7zM216 72q51 0 92.5 43t41.5 94v14q-205 -7 -205 -91q0 -60 71 -60z" />
    <glyph glyph-name="Abreve" unicode="&#x102;" horiz-adv-x="718" 
d="M355 728q-65 0 -104.5 35.5t-39.5 95.5h89q0 -23 15 -37t40 -14q24 0 38.5 14t14.5 37h89q0 -60 -39 -95.5t-103 -35.5zM648 78h69v-78h-252v78h71l-49 139h-262l-47 -139h72v-78h-246v78h69l218 612h130zM254 303h203l-103 295z" />
    <glyph glyph-name="abreve" unicode="&#x103;" horiz-adv-x="549" 
d="M264 563q-65 0 -104.5 35.5t-39.5 95.5h88q0 -23 15 -38t41 -15t40 14.5t14 38.5h88q0 -60 -39 -95.5t-103 -35.5zM520 87l13 -75q-25 -17 -67 -17q-40 0 -65.5 21.5t-31.5 57.5q-1 4 -1 12v13h-2q-20 -51 -68 -80t-113 -29t-106.5 34.5t-41.5 91.5q0 81 81.5 128.5
t231.5 51.5v27q0 48 -29 77t-74 29q-40 0 -68.5 -19.5t-34.5 -51.5l-88 23q5 54 58.5 94.5t136.5 40.5q93 0 150 -53.5t57 -155.5v-189q0 -38 33 -38q10 0 29 7zM216 72q51 0 92.5 43t41.5 94v14q-205 -7 -205 -91q0 -60 71 -60z" />
    <glyph glyph-name="Aogonek" unicode="&#x104;" horiz-adv-x="718" 
d="M641 0q-54 -43 -54 -99q0 -18 9 -28t23 -10t27 5v-61q-19 -8 -46 -8q-39 0 -65.5 23t-26.5 63q0 65 58 115h-101v78h71l-49 139h-262l-47 -139h72v-78h-246v78h69l218 612h130l227 -612h69v-78h-76zM254 303h203l-103 295z" />
    <glyph glyph-name="aogonek" unicode="&#x105;" horiz-adv-x="549" 
d="M471 -93q0 -18 9 -28t23 -10t27 5v-61q-19 -8 -46 -8q-39 0 -65.5 23t-26.5 63q0 58 49 107q-61 12 -72 76q-1 4 -1 12v13h-2q-20 -51 -68 -80t-113 -29t-106.5 34.5t-41.5 91.5q0 81 81.5 128.5t231.5 51.5v27q0 48 -29 77t-74 29q-40 0 -68.5 -19.5t-34.5 -51.5l-88 23
q5 54 58.5 94.5t136.5 40.5q93 0 150 -53.5t57 -155.5v-189q0 -38 33 -38q10 0 29 7l13 -75q-62 -46 -62 -105zM216 72q51 0 92.5 43t41.5 94v14q-205 -7 -205 -91q0 -60 71 -60z" />
    <glyph glyph-name="Cacute" unicode="&#x106;" horiz-adv-x="683" 
d="M481 888l34 -99l-236 -65l-22 63zM625 448h-84v109q-69 52 -173 52q-94 0 -153 -73t-59 -191t59.5 -191t155.5 -73q110 0 176 47v101h84v-155q-42 -39 -112 -61.5t-148 -22.5q-146 0 -236.5 98t-90.5 257q0 160 88 257.5t237 97.5q159 0 257 -87z" />
    <glyph glyph-name="cacute" unicode="&#x107;" horiz-adv-x="544" 
d="M388 714l38 -94l-224 -74l-25 60zM41 253q0 110 68.5 186.5t187.5 76.5q130 0 198 -76v-113h-96v62q-33 40 -103 40q-71 0 -109 -49.5t-38 -126.5q0 -80 38.5 -128t110.5 -48q42 0 77 20t51 52l85 -36q-21 -57 -76.5 -90t-136.5 -33q-119 0 -188 71.5t-69 191.5z" />
    <glyph glyph-name="Ccircumflex" unicode="&#x108;" horiz-adv-x="683" 
d="M371 785l-137 -54l-23 59l160 92l159 -92l-23 -59zM547 229h84v-155q-42 -39 -112 -61.5t-148 -22.5q-146 0 -236.5 98t-90.5 257q0 160 88 257.5t237 97.5q159 0 257 -87l-1 -165h-84v109q-69 52 -173 52q-94 0 -153 -73t-59 -191t59.5 -191t155.5 -73q110 0 176 47v101
z" />
    <glyph glyph-name="ccircumflex" unicode="&#x109;" horiz-adv-x="544" 
d="M290 595l-137 -52l-23 57l160 97l159 -97l-23 -57zM426 149l85 -36q-21 -57 -76.5 -90t-136.5 -33q-119 0 -188 71.5t-69 191.5q0 110 68.5 186.5t187.5 76.5q130 0 198 -76v-113h-96v62q-33 40 -103 40q-71 0 -109 -49.5t-38 -126.5q0 -80 38.5 -128t110.5 -48
q42 0 77 20t51 52z" />
    <glyph glyph-name="Cdotaccent" unicode="&#x10a;" horiz-adv-x="683" 
d="M374 726q-33 0 -56.5 23t-23.5 56q0 31 23.5 54t56.5 23q31 0 54 -23t23 -54q0 -33 -22.5 -56t-54.5 -23zM625 448h-84v109q-69 52 -173 52q-94 0 -153 -73t-59 -191t59.5 -191t155.5 -73q110 0 176 47v101h84v-155q-42 -39 -112 -61.5t-148 -22.5q-146 0 -236.5 98
t-90.5 257q0 160 88 257.5t237 97.5q159 0 257 -87z" />
    <glyph glyph-name="cdotaccent" unicode="&#x10b;" horiz-adv-x="544" 
d="M291 558q-32 0 -54.5 22t-22.5 54q0 30 22.5 52t54.5 22q30 0 52 -22t22 -52q0 -32 -22 -54t-52 -22zM41 253q0 110 68.5 186.5t187.5 76.5q130 0 198 -76v-113h-96v62q-33 40 -103 40q-71 0 -109 -49.5t-38 -126.5q0 -80 38.5 -128t110.5 -48q42 0 77 20t51 52l85 -36
q-21 -57 -76.5 -90t-136.5 -33q-119 0 -188 71.5t-69 191.5z" />
    <glyph glyph-name="Ccaron" unicode="&#x10c;" horiz-adv-x="683" 
d="M531 810l-155 -88l-155 88l22 59l133 -52l132 52zM547 229h84v-155q-42 -39 -112 -61.5t-148 -22.5q-146 0 -236.5 98t-90.5 257q0 160 88 257.5t237 97.5q159 0 257 -87l-1 -165h-84v109q-69 52 -173 52q-94 0 -153 -73t-59 -191t59.5 -191t155.5 -73q110 0 176 47v101z
" />
    <glyph glyph-name="ccaron" unicode="&#x10d;" horiz-adv-x="544" 
d="M443 633l-155 -88l-155 88l22 59l133 -52l132 52zM426 149l85 -36q-21 -57 -76.5 -90t-136.5 -33q-119 0 -188 71.5t-69 191.5q0 110 68.5 186.5t187.5 76.5q130 0 198 -76v-113h-96v62q-33 40 -103 40q-71 0 -109 -49.5t-38 -126.5q0 -80 38.5 -128t110.5 -48
q42 0 77 20t51 52z" />
    <glyph glyph-name="Dcaron" unicode="&#x10e;" horiz-adv-x="716" 
d="M481 811l-155 -88l-155 88l22 59l133 -52l132 52zM350 690q147 0 233 -94t86 -255q0 -158 -84 -249.5t-235 -91.5h-297v78h72v534h-72v78h297zM350 84q98 1 153.5 68t55.5 189q0 121 -56 194t-153 72h-118v-523h118z" />
    <glyph glyph-name="dcaron" unicode="&#x10f;" horiz-adv-x="627" 
d="M596 729h101l-30 -210h-84zM562 81q14 0 28 7l14 -76q-27 -17 -70 -17q-46 0 -69.5 24.5t-26.5 56.5q-1 7 0 24h-2q-21 -48 -69 -79.5t-111 -31.5q-98 0 -156 72t-58 189t68.5 191.5t180.5 74.5q78 0 130 -46v179h-73v74h145q35 0 35 -34v-572q0 -17 10 -26.5t24 -9.5z
M421 263v116q-40 50 -120 50q-71 0 -111 -49t-40 -130q0 -77 35 -125.5t99 -48.5q63 0 100 53.5t37 133.5z" />
    <glyph glyph-name="Dcroat" unicode="&#x110;" horiz-adv-x="716" 
d="M350 690q147 0 233 -94t86 -255q0 -158 -84 -249.5t-235 -91.5h-297v78h72v234h-66v69h66v231h-72v78h297zM350 84q98 1 153.5 68t55.5 189q0 121 -56 194t-153 72h-118v-226h155v-69h-155v-228h118z" />
    <glyph glyph-name="dcroat" unicode="&#x111;" horiz-adv-x="627" 
d="M590 88l14 -76q-27 -17 -70 -17q-42 0 -67.5 24t-31.5 59q-1 2 1 22h-2q-24 -51 -69 -81t-109 -30q-98 0 -156 72t-58 189t68.5 191.5t180.5 74.5q82 0 130 -42v92h-147v69h147v85h107v-85h74v-69h-74v-449q0 -17 10 -26.5t24 -9.5t28 7zM421 223v156q-44 50 -120 50
q-71 0 -111 -49t-40 -130q0 -77 35 -125.5t99 -48.5q60 0 98.5 44.5t38.5 102.5z" />
    <glyph glyph-name="Emacron" unicode="&#x112;" horiz-adv-x="633" 
d="M468 844v-91h-261v91h261zM499 174h84v-174h-530v78h72v534h-72v78h526v-178h-84v96h-263v-214h250v-83h-250v-229h267v92z" />
    <glyph glyph-name="emacron" unicode="&#x113;" horiz-adv-x="553" 
d="M407 664v-83h-238v83h238zM284 515q118 1 175.5 -75t52.5 -211h-364q6 -68 46 -110t107 -42q45 0 80.5 19.5t51.5 51.5l78 -41q-20 -54 -77.5 -85.5t-132.5 -31.5q-116 0 -188 73.5t-72 189.5q0 114 67.5 188t175.5 74zM151 300h261q-3 55 -34 93.5t-90 38.5
q-53 0 -89.5 -36t-47.5 -96z" />
    <glyph glyph-name="Ebreve" unicode="&#x114;" horiz-adv-x="633" 
d="M339 728q-65 0 -104.5 35.5t-39.5 95.5h89q0 -23 15 -37t40 -14q24 0 38.5 14t14.5 37h89q0 -60 -39 -95.5t-103 -35.5zM499 174h84v-174h-530v78h72v534h-72v78h526v-178h-84v96h-263v-214h250v-83h-250v-229h267v92z" />
    <glyph glyph-name="ebreve" unicode="&#x115;" horiz-adv-x="553" 
d="M290 557q-65 0 -104.5 35.5t-39.5 95.5h88q0 -23 15 -38t41 -15t40 14.5t14 38.5h88q0 -60 -39 -95.5t-103 -35.5zM284 515q118 1 175.5 -75t52.5 -211h-364q6 -68 46 -110t107 -42q45 0 80.5 19.5t51.5 51.5l78 -41q-20 -54 -77.5 -85.5t-132.5 -31.5q-116 0 -188 73.5
t-72 189.5q0 114 67.5 188t175.5 74zM151 300h261q-3 55 -34 93.5t-90 38.5q-53 0 -89.5 -36t-47.5 -96z" />
    <glyph glyph-name="Edotaccent" unicode="&#x116;" horiz-adv-x="633" 
d="M340 727q-33 0 -56.5 23t-23.5 56q0 31 23.5 54t56.5 23q31 0 54 -23t23 -54q0 -33 -22.5 -56t-54.5 -23zM499 174h84v-174h-530v78h72v534h-72v78h526v-178h-84v96h-263v-214h250v-83h-250v-229h267v92z" />
    <glyph glyph-name="edotaccent" unicode="&#x117;" horiz-adv-x="553" 
d="M290 558q-32 0 -54.5 22t-22.5 54q0 30 22.5 52t54.5 22q30 0 52 -22t22 -52q0 -32 -22 -54t-52 -22zM284 515q118 1 175.5 -75t52.5 -211h-364q6 -68 46 -110t107 -42q45 0 80.5 19.5t51.5 51.5l78 -41q-20 -54 -77.5 -85.5t-132.5 -31.5q-116 0 -188 73.5t-72 189.5
q0 114 67.5 188t175.5 74zM151 300h261q-3 55 -34 93.5t-90 38.5q-53 0 -89.5 -36t-47.5 -96z" />
    <glyph glyph-name="Eogonek" unicode="&#x118;" horiz-adv-x="633" 
d="M583 0q-62 -46 -62 -105q0 -18 9 -28t23 -10t27 5v-61q-19 -8 -46 -8q-39 0 -65.5 23t-26.5 63q0 69 65 121h-454v78h72v534h-72v78h526v-178h-84v96h-263v-214h250v-83h-250v-229h267v92h84v-174z" />
    <glyph glyph-name="eogonek" unicode="&#x119;" horiz-adv-x="553" 
d="M284 515q118 1 175.5 -75t52.5 -211h-364q6 -68 46 -110t107 -42q45 0 80.5 19.5t51.5 51.5l78 -41q-18 -47 -64 -78q-49 -41 -49 -94q0 -18 9 -28t23 -10t27 5v-61q-19 -8 -46 -8q-39 0 -65.5 23t-26.5 63q0 38 22 73q-26 -2 -40 -2q-116 0 -188 73.5t-72 189.5
q0 114 67.5 188t175.5 74zM151 300h261q-3 55 -34 93.5t-90 38.5q-53 0 -89.5 -36t-47.5 -96z" />
    <glyph glyph-name="Ecaron" unicode="&#x11a;" horiz-adv-x="633" 
d="M497 811l-155 -88l-155 88l22 59l133 -52l132 52zM499 174h84v-174h-530v78h72v534h-72v78h526v-178h-84v96h-263v-214h250v-83h-250v-229h267v92z" />
    <glyph glyph-name="ecaron" unicode="&#x11b;" horiz-adv-x="553" 
d="M442 633l-155 -88l-155 88l22 59l133 -52l132 52zM284 515q118 1 175.5 -75t52.5 -211h-364q6 -68 46 -110t107 -42q45 0 80.5 19.5t51.5 51.5l78 -41q-20 -54 -77.5 -85.5t-132.5 -31.5q-116 0 -188 73.5t-72 189.5q0 114 67.5 188t175.5 74zM151 300h261
q-3 55 -34 93.5t-90 38.5q-53 0 -89.5 -36t-47.5 -96z" />
    <glyph glyph-name="Gcircumflex" unicode="&#x11c;" horiz-adv-x="696" 
d="M376 786l-137 -54l-23 59l160 92l159 -92l-23 -59zM403 337h234v-261q-99 -86 -269 -86q-145 0 -233.5 97.5t-88.5 257.5t88.5 257.5t233.5 97.5q162 0 262 -98v-149h-85v96q-25 25 -72 42.5t-105 17.5q-95 0 -152.5 -72.5t-57.5 -191.5t57.5 -191.5t152.5 -72.5
q105 0 174 47v129h-139v80z" />
    <glyph glyph-name="gcircumflex" unicode="&#x11d;" horiz-adv-x="608" 
d="M309 601l-137 -52l-23 57l160 97l159 -97l-23 -57zM453 506h78v-506q0 -104 -67.5 -162t-180.5 -58q-97 0 -179 45l20 84q77 -43 159 -43q70 0 111 34t41 100v51q0 30 2 45h-3q-18 -50 -63 -78t-111 -28q-98 0 -158 72.5t-60 187.5q0 119 70 192t181 73q97 0 148 -66z
M425 257v122q-19 22 -52.5 35.5t-69.5 13.5q-71 0 -112.5 -48.5t-41.5 -129.5q0 -78 37.5 -125.5t100.5 -47.5q62 0 100 48.5t38 131.5z" />
    <glyph glyph-name="Gbreve" unicode="&#x11e;" horiz-adv-x="696" 
d="M234 859h89q0 -23 15 -37t40 -14q24 0 38.5 14t14.5 37h89q0 -60 -39 -95.5t-103 -35.5q-65 0 -104.5 35.5t-39.5 95.5zM403 337h234v-261q-99 -86 -269 -86q-145 0 -233.5 97.5t-88.5 257.5t88.5 257.5t233.5 97.5q162 0 262 -98v-149h-85v96q-25 25 -72 42.5t-105 17.5
q-95 0 -152.5 -72.5t-57.5 -191.5t57.5 -191.5t152.5 -72.5q105 0 174 47v129h-139v80z" />
    <glyph glyph-name="gbreve" unicode="&#x11f;" horiz-adv-x="608" 
d="M310 563q-65 0 -104.5 35.5t-39.5 95.5h88q0 -23 15 -38t41 -15t40 14.5t14 38.5h88q0 -60 -39 -95.5t-103 -35.5zM453 506h78v-506q0 -104 -67.5 -162t-180.5 -58q-97 0 -179 45l20 84q77 -43 159 -43q70 0 111 34t41 100v51q0 30 2 45h-3q-18 -50 -63 -78t-111 -28
q-98 0 -158 72.5t-60 187.5q0 119 70 192t181 73q97 0 148 -66zM425 257v122q-19 22 -52.5 35.5t-69.5 13.5q-71 0 -112.5 -48.5t-41.5 -129.5q0 -78 37.5 -125.5t100.5 -47.5q62 0 100 48.5t38 131.5z" />
    <glyph glyph-name="Gdotaccent" unicode="&#x120;" horiz-adv-x="696" 
d="M379 727q-33 0 -56.5 23t-23.5 56q0 31 23.5 54t56.5 23q31 0 54 -23t23 -54q0 -33 -22.5 -56t-54.5 -23zM403 337h234v-261q-99 -86 -269 -86q-145 0 -233.5 97.5t-88.5 257.5t88.5 257.5t233.5 97.5q162 0 262 -98v-149h-85v96q-25 25 -72 42.5t-105 17.5
q-95 0 -152.5 -72.5t-57.5 -191.5t57.5 -191.5t152.5 -72.5q105 0 174 47v129h-139v80z" />
    <glyph glyph-name="gdotaccent" unicode="&#x121;" horiz-adv-x="608" 
d="M310 564q-32 0 -54.5 22t-22.5 54q0 30 22.5 52t54.5 22q30 0 52 -22t22 -52q0 -32 -22 -54t-52 -22zM453 506h78v-506q0 -104 -67.5 -162t-180.5 -58q-97 0 -179 45l20 84q77 -43 159 -43q70 0 111 34t41 100v51q0 30 2 45h-3q-18 -50 -63 -78t-111 -28q-98 0 -158 72.5
t-60 187.5q0 119 70 192t181 73q97 0 148 -66zM425 257v122q-19 22 -52.5 35.5t-69.5 13.5q-71 0 -112.5 -48.5t-41.5 -129.5q0 -78 37.5 -125.5t100.5 -47.5q62 0 100 48.5t38 131.5z" />
    <glyph glyph-name="Gcommaaccent" unicode="&#x122;" horiz-adv-x="696" 
d="M403 337h234v-261q-99 -86 -269 -86q-145 0 -233.5 97.5t-88.5 257.5t88.5 257.5t233.5 97.5q162 0 262 -98v-149h-85v96q-25 25 -72 42.5t-105 17.5q-95 0 -152.5 -72.5t-57.5 -191.5t57.5 -191.5t152.5 -72.5q105 0 174 47v129h-139v80zM359 -49q30 0 49 -19.5
t19 -47.5q0 -27 -15 -57l-42 -88h-68l40 80q-23 5 -37.5 22t-14.5 42q0 29 19 48.5t50 19.5z" />
    <glyph glyph-name="gcommaaccent" unicode="&#x123;" horiz-adv-x="608" 
d="M308 555q-30 0 -49 19.5t-19 47.5q0 27 15 57l42 88h68l-40 -80q23 -5 37.5 -22t14.5 -42q0 -29 -19 -48.5t-50 -19.5zM453 506h78v-506q0 -104 -67.5 -162t-180.5 -58q-97 0 -179 45l20 84q77 -43 159 -43q70 0 111 34t41 100v51q0 30 2 45h-3q-18 -50 -63 -78t-111 -28
q-98 0 -158 72.5t-60 187.5q0 119 70 192t181 73q97 0 148 -66zM425 257v122q-19 22 -52.5 35.5t-69.5 13.5q-71 0 -112.5 -48.5t-41.5 -129.5q0 -78 37.5 -125.5t100.5 -47.5q62 0 100 48.5t38 131.5z" />
    <glyph glyph-name="Hcircumflex" unicode="&#x124;" horiz-adv-x="792" 
d="M394 786l-137 -54l-23 59l160 92l159 -92l-23 -59zM738 612h-71v-534h71v-78h-250v78h72v224h-328v-224h71v-78h-250v78h72v534h-72v78h250v-78h-71v-224h328v224h-72v78h250v-78z" />
    <glyph glyph-name="hcircumflex" unicode="&#x125;" horiz-adv-x="660" 
d="M246 749l-136 54l-137 -54l-23 59l160 92l159 -92zM568 75h73v-75h-180v283q0 64 -29.5 101t-86.5 37q-63 0 -101.5 -53t-38.5 -141v-152h76v-75h-256v75h74v563h-74v82h136q35 0 35 -34v-247q0 -11 -3 -47h3q45 124 186 124q86 0 136 -58t50 -157v-226z" />
    <glyph glyph-name="Hbar" unicode="&#x126;" horiz-adv-x="792" 
d="M751 470h-84v-392h71v-78h-250v78h72v224h-328v-224h71v-78h-250v78h72v392h-84v67h84v75h-72v78h250v-78h-71v-75h328v75h-72v78h250v-78h-71v-75h84v-67zM560 388v82h-328v-82h328z" />
    <glyph glyph-name="hbar" unicode="&#x127;" horiz-adv-x="660" 
d="M568 75h73v-75h-180v283q0 64 -29.5 101t-86.5 37q-63 0 -101.5 -52.5t-38.5 -139.5v-154h76v-75h-256v75h74v492h-59v69h59v84h97v-84h172v-69h-172v-129q0 -12 -3 -48h3q44 126 186 126q86 0 136 -58t50 -157v-226z" />
    <glyph glyph-name="Itilde" unicode="&#x128;" horiz-adv-x="359" 
d="M253 753q-33 0 -71.5 15.5t-55.5 15.5q-28 0 -28 -27h-79q-8 51 14 83t68 32q32 0 70.5 -16.5t54.5 -16.5q30 0 30 23h79q5 -50 -16 -79.5t-66 -29.5zM54 0v78h71v534h-71v78h250v-78h-70v-534h70v-78h-250z" />
    <glyph glyph-name="itilde" unicode="&#x129;" horiz-adv-x="322" 
d="M244 572q-32 0 -68.5 14.5t-53.5 14.5q-27 0 -27 -26h-76q-8 50 13.5 80.5t65.5 30.5q31 0 68 -16t52 -16q29 0 29 23h76q5 -48 -15.5 -76.5t-63.5 -28.5zM188 506q34 0 34 -34v-397h73v-75h-254v75h75v355l-75 1v75h147z" />
    <glyph glyph-name="Imacron" unicode="&#x12a;" horiz-adv-x="359" 
d="M47 844h261v-91h-261v91zM54 0v78h71v534h-71v78h250v-78h-70v-534h70v-78h-250z" />
    <glyph glyph-name="imacron" unicode="&#x12b;" horiz-adv-x="322" 
d="M50 670h238v-83h-238v83zM188 506q34 0 34 -34v-397h73v-75h-254v75h75v355l-75 1v75h147z" />
    <glyph glyph-name="Ibreve" unicode="&#x12c;" horiz-adv-x="359" 
d="M35 859h89q0 -23 15 -37t40 -14q24 0 38.5 14t14.5 37h89q0 -60 -39 -95.5t-103 -35.5q-65 0 -104.5 35.5t-39.5 95.5zM54 0v78h71v534h-71v78h250v-78h-70v-534h70v-78h-250z" />
    <glyph glyph-name="Iogonek" unicode="&#x12e;" horiz-adv-x="359" 
d="M304 612h-70v-534h70v-78h-89q-62 -46 -62 -105q0 -18 9 -28t23 -10t27 5v-61q-19 -8 -46 -8q-39 0 -65.5 23t-26.5 63q0 69 65 121h-85v78h71v534h-71v78h250v-78z" />
    <glyph glyph-name="iogonek" unicode="&#x12f;" horiz-adv-x="322" 
d="M171 564q-32 0 -54.5 22t-22.5 54q0 30 22.5 52t54.5 22q30 0 52 -22t22 -52q0 -32 -22 -54t-52 -22zM197 0q-59 -44 -59 -103q0 -18 9 -28t23 -10t27 5v-61q-19 -8 -46 -8q-39 0 -65.5 23t-26.5 63q0 68 63 119h-81v75h75v355l-75 1v75h147q34 0 34 -34v-397h73v-75h-98
z" />
    <glyph glyph-name="Idotaccent" unicode="&#x130;" horiz-adv-x="359" 
d="M180 727q-33 0 -56.5 23t-23.5 56q0 31 23.5 54t56.5 23q31 0 54 -23t23 -54q0 -33 -22.5 -56t-54.5 -23zM54 0v78h71v534h-71v78h250v-78h-70v-534h70v-78h-250z" />
    <glyph glyph-name="dotlessi" unicode="&#x131;" horiz-adv-x="322" 
d="M188 506q34 0 34 -34v-397h73v-75h-254v75h75v355l-75 1v75h147z" />
    <glyph glyph-name="IJ" unicode="&#x132;" horiz-adv-x="942" 
d="M54 0v78h71v534h-71v78h250v-78h-70v-534h70v-78h-250zM644 690h260v-78h-71v-401q0 -109 -65.5 -165t-171.5 -56q-66 0 -122 24.5t-86 71.5v144h94v-100q39 -46 116 -46q56 0 91.5 35t35.5 98v395h-81v78z" />
    <glyph glyph-name="ij" unicode="&#x133;" horiz-adv-x="601" 
d="M171 564q-32 0 -54.5 22t-22.5 54q0 30 22.5 52t54.5 22q30 0 52 -22t22 -52q0 -32 -22 -54t-52 -22zM470 564q-32 0 -54.5 22t-22.5 54q0 30 22.5 52t54.5 22q30 0 52 -22t22 -52q0 -32 -22 -54t-52 -22zM188 506q34 0 34 -34v-397h73v-75h-254v75h75v355l-75 1v75h147z
M276 -175l19 78q29 -16 64 -16q27 0 43.5 19t16.5 53v472h-71v75h143q34 0 34 -34v-499q0 -81 -42.5 -126t-118.5 -45q-54 0 -88 23z" />
    <glyph glyph-name="Jcircumflex" unicode="&#x134;" horiz-adv-x="583" 
d="M419 883l159 -92l-23 -59l-136 54l-137 -54l-23 59zM285 612v78h260v-78h-71v-401q0 -109 -65.5 -165t-171.5 -56q-66 0 -122 24.5t-86 71.5v144h94v-100q39 -46 116 -46q56 0 91.5 35t35.5 98v395h-81z" />
    <glyph glyph-name="jcircumflex" unicode="&#x135;" horiz-adv-x="279" 
d="M146 703l159 -97l-23 -57l-136 52l-137 -52l-23 57zM169 506q34 0 34 -34v-499q0 -81 -42.5 -126t-118.5 -45q-54 0 -88 23l19 78q29 -16 64 -16q27 0 43.5 19t16.5 53v472h-71v75h143z" />
    <glyph glyph-name="Kcommaaccent" unicode="&#x136;" horiz-adv-x="711" 
d="M232 612v-534h71v-78h-250v78h72v534h-72v78h250v-78h-71zM629 78h61v-78h-185v69l-226 265v19l223 260h-63v77h239v-77h-58l-231 -265zM387 -49q30 0 49 -19.5t19 -47.5q0 -27 -15 -57l-42 -88h-68l40 80q-23 5 -37.5 22t-14.5 42q0 29 19 48.5t50 19.5z" />
    <glyph glyph-name="kcommaaccent" unicode="&#x137;" horiz-adv-x="597" 
d="M267 75v-75h-242v75h75v570h-75v75h146q34 0 34 -34v-611h62zM501 431l-174 -159l186 -197h54v-75h-170v69l-173 192v19l162 151h-47v75h228v-75h-66zM295 -49q30 0 49 -19.5t19 -47.5q0 -27 -15 -57l-42 -88h-68l40 80q-23 5 -37.5 22t-14.5 42q0 29 19 48.5t50 19.5z
" />
    <glyph glyph-name="kgreenlandic" unicode="&#x138;" horiz-adv-x="612" 
d="M220 472v-397h61v-75h-242v75h76v356h-76v75h147q34 0 34 -34zM516 431l-174 -158l184 -198h56v-75h-171v69l-173 193v19l163 150h-52v75h233v-75h-66z" />
    <glyph glyph-name="Lacute" unicode="&#x139;" horiz-adv-x="581" 
d="M324 790l-236 -65l-22 63l224 101zM481 195h83v-195h-511v78h72v534h-72v78h251v-78h-72v-530h249v113z" />
    <glyph glyph-name="lacute" unicode="&#x13a;" horiz-adv-x="308" 
d="M242 919l34 -99l-236 -65l-22 63zM173 720q34 0 34 -34v-611h76v-75h-258v75h76v564h-75v81h147z" />
    <glyph glyph-name="Lcommaaccent" unicode="&#x13b;" horiz-adv-x="581" 
d="M481 195h83v-195h-511v78h72v534h-72v78h251v-78h-72v-530h249v113zM323 -49q30 0 49 -19.5t19 -47.5q0 -27 -15 -57l-42 -88h-68l40 80q-23 5 -37.5 22t-14.5 42q0 29 19 48.5t50 19.5z" />
    <glyph glyph-name="lcommaaccent" unicode="&#x13c;" horiz-adv-x="308" 
d="M207 75h76v-75h-258v75h76v564h-75v81h147q34 0 34 -34v-611zM151 -49q30 0 49 -19.5t19 -47.5q0 -27 -15 -57l-42 -88h-68l40 80q-23 5 -37.5 22t-14.5 42q0 29 19 48.5t50 19.5z" />
    <glyph glyph-name="Lcaron" unicode="&#x13d;" horiz-adv-x="581" 
d="M508 775l-30 -210h-84l13 210h101zM481 195h83v-195h-511v78h72v534h-72v78h251v-78h-72v-530h249v113z" />
    <glyph glyph-name="lcaron" unicode="&#x13e;" horiz-adv-x="308" 
d="M258 519l13 210h101l-30 -210h-84zM173 720q34 0 34 -34v-611h76v-75h-258v75h76v564h-75v81h147z" />
    <glyph glyph-name="Ldot" unicode="&#x13f;" horiz-adv-x="584" 
d="M481 195h83v-195h-511v78h72v534h-72v78h251v-78h-72v-530h249v113zM421 301q-32 0 -54.5 22t-22.5 54q0 30 22.5 52t54.5 22q30 0 52 -22t22 -52q0 -32 -22 -54t-52 -22z" />
    <glyph glyph-name="ldot" unicode="&#x140;" horiz-adv-x="358" 
d="M173 720q34 0 34 -34v-611h76v-75h-258v75h76v564h-75v81h147zM337 219q-32 0 -54.5 22t-22.5 54q0 30 22.5 52.5t54.5 22.5q30 0 52 -22.5t22 -52.5q0 -31 -22 -53.5t-52 -22.5z" />
    <glyph glyph-name="Lslash" unicode="&#x141;" horiz-adv-x="581" 
d="M481 195h83v-195h-511v78h72v195l-85 -37l-27 64l112 50v262h-72v78h251v-78h-72v-215l83 37l29 -66l-112 -49v-237h249v113z" />
    <glyph glyph-name="lslash" unicode="&#x142;" horiz-adv-x="308" 
d="M207 351v-276h76v-75h-258v75h76v228l-76 -35l-29 63l105 49v259h-75v81h147q34 0 34 -34v-257l63 29l30 -65z" />
    <glyph glyph-name="Nacute" unicode="&#x143;" horiz-adv-x="788" 
d="M548 790l-236 -65l-22 63l224 101zM501 690h246v-77h-74v-613h-110l-341 539v-462h72v-77h-241v77h73v536h-73v77h177l348 -561v484h-77v77z" />
    <glyph glyph-name="nacute" unicode="&#x144;" horiz-adv-x="676" 
d="M452 714l38 -94l-224 -74l-25 60zM399 516q85 0 135 -58t50 -157v-226h73v-75h-179v283q0 65 -30 102.5t-87 37.5q-63 0 -101.5 -55.5t-38.5 -141.5v-151h76v-75h-256v75h74v352h-74v79h136q34 0 34 -34v-31q0 -30 -3 -48h3q52 123 188 123z" />
    <glyph glyph-name="Ncommaaccent" unicode="&#x145;" horiz-adv-x="788" 
d="M501 690h246v-77h-74v-613h-110l-341 539v-462h72v-77h-241v77h73v536h-73v77h177l348 -561v484h-77v77zM405 -49q30 0 49 -19.5t19 -47.5q0 -27 -15 -57l-42 -88h-68l40 80q-23 5 -37.5 22t-14.5 42q0 29 19 48.5t50 19.5z" />
    <glyph glyph-name="ncommaaccent" unicode="&#x146;" horiz-adv-x="676" 
d="M584 75h73v-75h-179v283q0 65 -30 102.5t-87 37.5q-63 0 -101.5 -55.5t-38.5 -141.5v-151h76v-75h-256v75h74v352h-74v79h136q34 0 34 -34v-31q0 -30 -3 -48h3q52 123 188 123q85 0 135 -58t50 -157v-226zM354 -49q30 0 49 -19.5t19 -47.5q0 -27 -15 -57l-42 -88h-68
l40 80q-23 5 -37.5 22t-14.5 42q0 29 19 48.5t50 19.5z" />
    <glyph glyph-name="Ncaron" unicode="&#x147;" horiz-adv-x="788" 
d="M564 811l-155 -88l-155 88l22 59l133 -52l132 52zM501 690h246v-77h-74v-613h-110l-341 539v-462h72v-77h-241v77h73v536h-73v77h177l348 -561v484h-77v77z" />
    <glyph glyph-name="ncaron" unicode="&#x148;" horiz-adv-x="676" 
d="M507 633l-155 -88l-155 88l22 59l133 -52l132 52zM584 75h73v-75h-179v283q0 65 -30 102.5t-87 37.5q-63 0 -101.5 -55.5t-38.5 -141.5v-151h76v-75h-256v75h74v352h-74v79h136q34 0 34 -34v-31q0 -30 -3 -48h3q52 123 188 123q85 0 135 -58t50 -157v-226z" />
    <glyph glyph-name="napostrophe" unicode="&#x149;" horiz-adv-x="676" 
d="M59 651q0 -27 -15 -57l-42 -88h-68l40 80q-23 5 -37.5 22t-14.5 42q0 29 19 48.5t50 19.5q30 0 49 -19.5t19 -47.5zM584 75h73v-75h-179v283q0 65 -30 102.5t-87 37.5q-63 0 -101.5 -55.5t-38.5 -141.5v-151h76v-75h-256v75h74v352h-74v79h136q34 0 34 -34v-31
q0 -30 -3 -48h3q52 123 188 123q85 0 135 -58t50 -157v-226z" />
    <glyph glyph-name="Eng" unicode="&#x14a;" horiz-adv-x="788" 
d="M501 690h246v-77h-74v-652q0 -82 -50.5 -128t-135.5 -46q-132 0 -183 88v93h93v-57q28 -41 89 -41q41 0 66.5 24.5t25.5 66.5v52l-356 532v-468h71v-77h-240v77h73v536h-73v77l186 -1l339 -517v441h-77v77z" />
    <glyph glyph-name="eng" unicode="&#x14b;" horiz-adv-x="647" 
d="M41 0v75h74v349h-74v82h136q34 0 34 -34v-41q0 -26 -3 -44h3q45 129 188 129q85 0 135 -58t50 -157v-334q-1 -79 -44 -122t-118 -43q-51 0 -87 23l19 78q29 -16 64 -16q27 0 43.5 19t16.5 53v324q0 65 -30 102.5t-87 37.5q-63 0 -101.5 -56t-38.5 -142v-150h76v-75h-256z
" />
    <glyph glyph-name="Omacron" unicode="&#x14c;" horiz-adv-x="752" 
d="M244 844h261v-91h-261v91zM376 -10q-149 0 -240 97.5t-91 257.5q0 161 91 258t240 97t240 -97t91 -258q0 -160 -91 -257.5t-240 -97.5zM376 81q99 0 159 71.5t60 192.5t-60 192.5t-159 71.5t-159 -71.5t-60 -192.5t60 -192.5t159 -71.5z" />
    <glyph glyph-name="omacron" unicode="&#x14d;" horiz-adv-x="607" 
d="M184 664h238v-83h-238v83zM304 -10q-118 0 -190.5 73t-72.5 190q0 118 72.5 190.5t190.5 72.5t190 -72.5t72 -190.5q0 -117 -72 -190t-190 -73zM304 78q71 0 112 48t41 127t-41 127t-112 48q-72 0 -113.5 -48t-41.5 -127t41.5 -127t113.5 -48z" />
    <glyph glyph-name="Obreve" unicode="&#x14e;" horiz-adv-x="752" 
d="M232 859h89q0 -23 15 -37t40 -14q24 0 38.5 14t14.5 37h89q0 -60 -39 -95.5t-103 -35.5q-65 0 -104.5 35.5t-39.5 95.5zM376 -10q-149 0 -240 97.5t-91 257.5q0 161 91 258t240 97t240 -97t91 -258q0 -160 -91 -257.5t-240 -97.5zM376 81q99 0 159 71.5t60 192.5
t-60 192.5t-159 71.5t-159 -71.5t-60 -192.5t60 -192.5t159 -71.5z" />
    <glyph glyph-name="obreve" unicode="&#x14f;" horiz-adv-x="607" 
d="M161 688h88q0 -23 15 -38t41 -15t40 14.5t14 38.5h88q0 -60 -39 -95.5t-103 -35.5q-65 0 -104.5 35.5t-39.5 95.5zM304 -10q-118 0 -190.5 73t-72.5 190q0 118 72.5 190.5t190.5 72.5t190 -72.5t72 -190.5q0 -117 -72 -190t-190 -73zM304 78q71 0 112 48t41 127t-41 127
t-112 48q-72 0 -113.5 -48t-41.5 -127t41.5 -127t113.5 -48z" />
    <glyph glyph-name="Ohungarumlaut" unicode="&#x150;" horiz-adv-x="752" 
d="M289 878l103 -1l-77 -136h-77zM440 878l106 -1l-78 -136h-79zM376 -10q-149 0 -240 97.5t-91 257.5q0 161 91 258t240 97t240 -97t91 -258q0 -160 -91 -257.5t-240 -97.5zM376 81q99 0 159 71.5t60 192.5t-60 192.5t-159 71.5t-159 -71.5t-60 -192.5t60 -192.5t159 -71.5
z" />
    <glyph glyph-name="ohungarumlaut" unicode="&#x151;" horiz-adv-x="607" 
d="M234 691l99 -1l-74 -131h-74zM379 691l102 -1l-75 -131h-76zM304 -10q-118 0 -190.5 73t-72.5 190q0 118 72.5 190.5t190.5 72.5t190 -72.5t72 -190.5q0 -117 -72 -190t-190 -73zM304 78q71 0 112 48t41 127t-41 127t-112 48q-72 0 -113.5 -48t-41.5 -127t41.5 -127
t113.5 -48z" />
    <glyph glyph-name="OE" unicode="&#x152;" horiz-adv-x="1110" 
d="M978 174h84v-174h-458v75q-90 -85 -228 -85q-149 0 -240 97.5t-91 257.5q0 161 91 258t240 97q138 0 228 -85v75h453v-178h-84v96h-263v-214h249v-84h-249v-228h268v92zM376 81q99 0 159 71.5t60 192.5t-60 192.5t-159 71.5t-159 -71.5t-60 -192.5t60 -192.5t159 -71.5z
" />
    <glyph glyph-name="oe" unicode="&#x153;" horiz-adv-x="970" 
d="M702 515q118 1 175.5 -75t52.5 -211h-364q6 -68 46 -110t107 -42q45 0 80.5 19.5t51.5 51.5l78 -41q-20 -54 -77.5 -85.5t-132.5 -31.5q-133 0 -206 94q-73 -94 -209 -94q-118 0 -190.5 73t-72.5 190q0 118 72.5 190.5t190.5 72.5q135 0 208 -93q69 92 190 92zM569 300
h261q-3 55 -34 93.5t-90 38.5q-53 0 -89.5 -36t-47.5 -96zM304 78q71 0 112 48t41 127t-41 127t-112 48q-72 0 -113.5 -48t-41.5 -127t41.5 -127t113.5 -48z" />
    <glyph glyph-name="Racute" unicode="&#x154;" horiz-adv-x="679" 
d="M475 790l-236 -65l-22 63l224 101zM594 78h67v-78h-187v71l-138 213h-104v-207l76 1v-78h-255v78h72v534h-72v78h291q115 0 185.5 -56t70.5 -147q0 -70 -42.5 -120.5t-117.5 -70.5zM232 608v-245h113q67 0 107.5 34t40.5 90q0 54 -41 88t-107 33h-113z" />
    <glyph glyph-name="racute" unicode="&#x155;" horiz-adv-x="435" 
d="M314 720l38 -94l-224 -74l-25 60zM407 400q-31 9 -52 9q-65 0 -99.5 -54.5t-34.5 -138.5v-141h81v-75h-261v75h74v349h-74v82h137q34 0 34 -34v-41q0 -7 -3 -52h3q16 61 58 99t111 38q20 0 41 -7z" />
    <glyph glyph-name="Rcommaaccent" unicode="&#x156;" horiz-adv-x="679" 
d="M594 78h67v-78h-187v71l-138 213h-104v-207l76 1v-78h-255v78h72v534h-72v78h291q115 0 185.5 -56t70.5 -147q0 -70 -42.5 -120.5t-117.5 -70.5zM232 608v-245h113q67 0 107.5 34t40.5 90q0 54 -41 88t-107 33h-113zM355 -49q30 0 49 -19.5t19 -47.5q0 -27 -15 -57
l-42 -88h-68l40 80q-23 5 -37.5 22t-14.5 42q0 29 19 48.5t50 19.5z" />
    <glyph glyph-name="rcommaaccent" unicode="&#x157;" horiz-adv-x="435" 
d="M381 516q20 0 41 -7l-15 -109q-31 9 -52 9q-65 0 -99.5 -54.5t-34.5 -138.5v-141h81v-75h-261v75h74v349h-74v82h137q34 0 34 -34v-41q0 -7 -3 -52h3q16 61 58 99t111 38zM163 -49q30 0 49 -19.5t19 -47.5q0 -27 -15 -57l-42 -88h-68l40 80q-23 5 -37.5 22t-14.5 42
q0 29 19 48.5t50 19.5z" />
    <glyph glyph-name="Rcaron" unicode="&#x158;" horiz-adv-x="679" 
d="M491 811l-155 -88l-155 88l22 59l133 -52l132 52zM594 78h67v-78h-187v71l-138 213h-104v-207l76 1v-78h-255v78h72v534h-72v78h291q115 0 185.5 -56t70.5 -147q0 -70 -42.5 -120.5t-117.5 -70.5zM232 608v-245h113q67 0 107.5 34t40.5 90q0 54 -41 88t-107 33h-113z" />
    <glyph glyph-name="rcaron" unicode="&#x159;" horiz-adv-x="435" 
d="M369 639l-155 -88l-155 88l22 59l133 -52l132 52zM381 516q20 0 41 -7l-15 -109q-31 9 -52 9q-65 0 -99.5 -54.5t-34.5 -138.5v-141h81v-75h-261v75h74v349h-74v82h137q34 0 34 -34v-41q0 -7 -3 -52h3q16 61 58 99t111 38z" />
    <glyph glyph-name="Sacute" unicode="&#x15a;" horiz-adv-x="603" 
d="M412 889l34 -99l-236 -65l-22 63zM56 513q0 80 68 133.5t174 53.5q138 0 233 -91v-149h-85v103q-22 21 -61 35.5t-85 14.5q-59 0 -99.5 -27t-40.5 -72q0 -34 17 -58t45.5 -36.5t64 -24t73.5 -19t73.5 -23t64 -35t45.5 -55.5t17 -84q0 -90 -72 -139.5t-186 -49.5
q-170 0 -249 100v133h85v-86q51 -59 164 -59q69 0 112 25t43 76q0 35 -22 58.5t-57.5 36t-78.5 23t-85.5 25t-78 35.5t-57.5 60.5t-22 95.5z" />
    <glyph glyph-name="sacute" unicode="&#x15b;" horiz-adv-x="498" 
d="M347 714l38 -94l-224 -74l-25 60zM243 516q126 0 195 -50v-120h-91v63q-42 25 -100 25q-92 0 -92 -56q0 -31 31 -50t75.5 -30.5t89 -27t75.5 -50t31 -87.5q0 -68 -58 -105t-151 -37q-132 0 -200 68v107h91v-65q43 -29 110 -29q104 0 104 61q0 31 -31 49.5t-75.5 29.5
t-88.5 25.5t-75 49.5t-31 91q0 65 51 101.5t140 36.5z" />
    <glyph glyph-name="Scircumflex" unicode="&#x15c;" horiz-adv-x="603" 
d="M302 786l-137 -54l-23 59l160 92l159 -92l-23 -59zM160 514q0 -34 17 -58t45.5 -36.5t64 -24t73.5 -19t73.5 -23t64 -35t45.5 -55.5t17 -84q0 -90 -72 -139.5t-186 -49.5q-170 0 -249 100v133h85v-86q51 -59 164 -59q69 0 112 25t43 76q0 35 -22 58.5t-57.5 36t-78.5 23
t-85.5 25t-78 35.5t-57.5 60.5t-22 95.5q0 80 68 133.5t174 53.5q138 0 233 -91v-149h-85v103q-22 21 -61 35.5t-85 14.5q-59 0 -99.5 -27t-40.5 -72z" />
    <glyph glyph-name="scircumflex" unicode="&#x15d;" horiz-adv-x="498" 
d="M249 595l-137 -52l-23 57l160 97l159 -97l-23 -57zM155 378q0 -31 31 -50t75.5 -30.5t89 -27t75.5 -50t31 -87.5q0 -68 -58 -105t-151 -37q-132 0 -200 68v107h91v-65q43 -29 110 -29q104 0 104 61q0 31 -31 49.5t-75.5 29.5t-88.5 25.5t-75 49.5t-31 91q0 65 51 101.5
t140 36.5q126 0 195 -50v-120h-91v63q-42 25 -100 25q-92 0 -92 -56z" />
    <glyph glyph-name="Scedilla" unicode="&#x15e;" horiz-adv-x="603" 
d="M560 179q0 -81 -60 -129.5t-158 -57.5l-4 -35q29 0 47.5 -21t18.5 -55q0 -35 -28 -58t-73 -23q-49 0 -84 23l19 48q27 -19 56 -19q40 0 40 31t-40 31h-34l12 77q-147 8 -219 99v133h85v-86q51 -59 164 -59q69 0 112 25t43 76q0 35 -22 58.5t-57.5 36t-78.5 23t-85.5 25
t-78 35.5t-57.5 60.5t-22 95.5q0 80 68 133.5t174 53.5q138 0 233 -91v-149h-85v103q-22 21 -61 35.5t-85 14.5q-59 0 -99.5 -27t-40.5 -72q0 -34 17 -58t45.5 -36.5t64 -24t73.5 -19t73.5 -23t64 -35t45.5 -55.5t17 -84z" />
    <glyph glyph-name="scedilla" unicode="&#x15f;" horiz-adv-x="498" 
d="M457 133q0 -61 -46.5 -97t-124.5 -43l-4 -36q29 0 47.5 -21t18.5 -55q0 -35 -28 -58t-73 -23q-49 0 -84 23l19 48q27 -19 56 -19q40 0 40 31t-40 31h-34l12 78q-109 8 -168 67v107h91v-65q43 -29 110 -29q104 0 104 61q0 31 -31 49.5t-75.5 29.5t-88.5 25.5t-75 49.5
t-31 91q0 65 51 101.5t140 36.5q126 0 195 -50v-120h-91v63q-42 25 -100 25q-92 0 -92 -56q0 -31 31 -50t75.5 -30.5t89 -27t75.5 -50t31 -87.5z" />
    <glyph glyph-name="Scaron" unicode="&#x160;" horiz-adv-x="603" 
d="M462 811l-155 -88l-155 88l22 59l133 -52l132 52zM160 514q0 -34 17 -58t45.5 -36.5t64 -24t73.5 -19t73.5 -23t64 -35t45.5 -55.5t17 -84q0 -90 -72 -139.5t-186 -49.5q-170 0 -249 100v133h85v-86q51 -59 164 -59q69 0 112 25t43 76q0 35 -22 58.5t-57.5 36t-78.5 23
t-85.5 25t-78 35.5t-57.5 60.5t-22 95.5q0 80 68 133.5t174 53.5q138 0 233 -91v-149h-85v103q-22 21 -61 35.5t-85 14.5q-59 0 -99.5 -27t-40.5 -72z" />
    <glyph glyph-name="scaron" unicode="&#x161;" horiz-adv-x="498" 
d="M402 633l-155 -88l-155 88l22 59l133 -52l132 52zM155 378q0 -31 31 -50t75.5 -30.5t89 -27t75.5 -50t31 -87.5q0 -68 -58 -105t-151 -37q-132 0 -200 68v107h91v-65q43 -29 110 -29q104 0 104 61q0 31 -31 49.5t-75.5 29.5t-88.5 25.5t-75 49.5t-31 91q0 65 51 101.5
t140 36.5q126 0 195 -50v-120h-91v63q-42 25 -100 25q-92 0 -92 -56z" />
    <glyph glyph-name="uni0162" unicode="&#x162;" horiz-adv-x="631" 
d="M23 690h585v-197h-84v115h-154v-530h71v-78h-88l-5 -43q29 0 47.5 -21t18.5 -55q0 -35 -28 -58t-73 -23q-49 0 -84 23l19 48q27 -19 56 -19q40 0 40 31t-40 31h-34l13 86h-93v78h72v530h-155v-115h-84v197z" />
    <glyph glyph-name="uni0163" unicode="&#x163;" horiz-adv-x="374" 
d="M252 -43q29 0 47.5 -21t18.5 -55q0 -35 -28 -58t-73 -23q-49 0 -84 23l19 48q27 -19 56 -19q40 0 40 31t-40 31h-34l14 88q-92 33 -92 172v257h-75v75h72l34 134h76v-134h147v-75h-147l-1 -268q0 -41 18 -62.5t48 -21.5q35 0 65 15l19 -80q-36 -22 -96 -22z" />
    <glyph glyph-name="Tcaron" unicode="&#x164;" horiz-adv-x="631" 
d="M473 811l-155 -88l-155 88l22 59l133 -52l132 52zM23 690h585v-197h-84v115h-154v-530h71v-78h-251v78h72v530h-155v-115h-84v197z" />
    <glyph glyph-name="tcaron" unicode="&#x165;" horiz-adv-x="374" 
d="M264 545l13 210h101l-30 -210h-84zM127 640h76v-134h147v-75h-147l-1 -268q0 -41 18 -62.5t48 -21.5q35 0 65 15l19 -80q-36 -22 -98 -22q-158 0 -158 182v257h-75v75h72z" />
    <glyph glyph-name="Tbar" unicode="&#x166;" horiz-adv-x="631" 
d="M23 690h585v-197h-84v115h-154v-227h112v-69h-112v-234h71v-78h-251v78h72v234h-108v69h108v227h-155v-115h-84v197z" />
    <glyph glyph-name="tbar" unicode="&#x167;" horiz-adv-x="374" 
d="M333 94l19 -80q-36 -22 -98 -22q-158 0 -158 182v82h-68v69h68v106h-75v75h72l34 134h76v-134h147v-75h-147v-106h137v-69h-138v-93q0 -41 18 -62.5t48 -21.5q35 0 65 15z" />
    <glyph glyph-name="Utilde" unicode="&#x168;" horiz-adv-x="765" 
d="M454 753q-33 0 -71.5 15.5t-55.5 15.5q-28 0 -28 -27h-79q-8 51 14 83t68 32q32 0 70.5 -16.5t54.5 -16.5q30 0 30 23h79q5 -50 -16 -79.5t-66 -29.5zM38 612v78h249v-78h-71v-333q0 -94 45 -144t122 -50t121.5 50t44.5 144v333h-71v78h250v-78h-71v-333
q0 -134 -75 -211.5t-199 -77.5q-125 0 -200 77.5t-75 211.5v333h-70z" />
    <glyph glyph-name="utilde" unicode="&#x169;" horiz-adv-x="639" 
d="M376 566q-32 0 -69 14.5t-53 14.5q-27 0 -27 -26h-76q-8 50 13.5 80.5t65.5 30.5q31 0 68 -16t52 -16q29 0 29 23h76q5 -48 -15.5 -76.5t-63.5 -28.5zM603 85l14 -74q-27 -15 -66 -15q-40 0 -65 20t-33 52q-3 15 -3 32h-2q-21 -51 -69 -80.5t-105 -29.5q-87 0 -134 56
t-47 156v230h-74v74h146q35 0 35 -34v-253q0 -65 26 -100.5t74 -35.5q55 0 94.5 50t39.5 110v189h-78v74h151q34 0 34 -34v-356q0 -38 33 -38q13 0 29 7z" />
    <glyph glyph-name="Umacron" unicode="&#x16a;" horiz-adv-x="765" 
d="M248 844h261v-91h-261v91zM38 612v78h249v-78h-71v-333q0 -94 45 -144t122 -50t121.5 50t44.5 144v333h-71v78h250v-78h-71v-333q0 -134 -75 -211.5t-199 -77.5q-125 0 -200 77.5t-75 211.5v333h-70z" />
    <glyph glyph-name="umacron" unicode="&#x16b;" horiz-adv-x="639" 
d="M182 664h238v-83h-238v83zM603 85l14 -74q-27 -15 -66 -15q-40 0 -65 20t-33 52q-3 15 -3 32h-2q-21 -51 -69 -80.5t-105 -29.5q-87 0 -134 56t-47 156v230h-74v74h146q35 0 35 -34v-253q0 -65 26 -100.5t74 -35.5q55 0 94.5 50t39.5 110v189h-78v74h151q34 0 34 -34
v-356q0 -38 33 -38q13 0 29 7z" />
    <glyph glyph-name="Ubreve" unicode="&#x16c;" horiz-adv-x="765" 
d="M236 859h89q0 -23 15 -37t40 -14q24 0 38.5 14t14.5 37h89q0 -60 -39 -95.5t-103 -35.5q-65 0 -104.5 35.5t-39.5 95.5zM38 612v78h249v-78h-71v-333q0 -94 45 -144t122 -50t121.5 50t44.5 144v333h-71v78h250v-78h-71v-333q0 -134 -75 -211.5t-199 -77.5
q-125 0 -200 77.5t-75 211.5v333h-70z" />
    <glyph glyph-name="ubreve" unicode="&#x16d;" horiz-adv-x="639" 
d="M159 688h88q0 -23 15 -38t41 -15t40 14.5t14 38.5h88q0 -60 -39 -95.5t-103 -35.5q-65 0 -104.5 35.5t-39.5 95.5zM603 85l14 -74q-27 -15 -66 -15q-40 0 -65 20t-33 52q-3 15 -3 32h-2q-21 -51 -69 -80.5t-105 -29.5q-87 0 -134 56t-47 156v230h-74v74h146q35 0 35 -34
v-253q0 -65 26 -100.5t74 -35.5q55 0 94.5 50t39.5 110v189h-78v74h151q34 0 34 -34v-356q0 -38 33 -38q13 0 29 7z" />
    <glyph glyph-name="Uring" unicode="&#x16e;" horiz-adv-x="765" 
d="M381 721q-43 0 -71 27.5t-28 68.5q0 39 28.5 66t70.5 27q41 0 68 -27t27 -66q0 -41 -27 -68.5t-68 -27.5zM381 784q13 0 21.5 9t8.5 23t-8.5 22t-21.5 8q-14 0 -23 -8.5t-9 -21.5q0 -14 9 -23t23 -9zM38 612v78h249v-78h-71v-333q0 -94 45 -144t122 -50t121.5 50
t44.5 144v333h-71v78h250v-78h-71v-333q0 -134 -75 -211.5t-199 -77.5q-125 0 -200 77.5t-75 211.5v333h-70z" />
    <glyph glyph-name="uring" unicode="&#x16f;" horiz-adv-x="639" 
d="M303 543q-37 0 -61 24t-24 59q0 33 24.5 56.5t60.5 23.5q35 0 58.5 -23.5t23.5 -56.5q0 -35 -23.5 -59t-58.5 -24zM303 597q11 0 18.5 8t7.5 20q0 11 -7.5 18.5t-18.5 7.5q-12 0 -20 -7.5t-8 -18.5q0 -12 8 -20t20 -8zM603 85l14 -74q-27 -15 -66 -15q-40 0 -65 20
t-33 52q-3 15 -3 32h-2q-21 -51 -69 -80.5t-105 -29.5q-87 0 -134 56t-47 156v230h-74v74h146q35 0 35 -34v-253q0 -65 26 -100.5t74 -35.5q55 0 94.5 50t39.5 110v189h-78v74h151q34 0 34 -34v-356q0 -38 33 -38q13 0 29 7z" />
    <glyph glyph-name="Uhungarumlaut" unicode="&#x170;" horiz-adv-x="765" 
d="M293 878l103 -1l-77 -136h-77zM444 878l106 -1l-78 -136h-79zM38 612v78h249v-78h-71v-333q0 -94 45 -144t122 -50t121.5 50t44.5 144v333h-71v78h250v-78h-71v-333q0 -134 -75 -211.5t-199 -77.5q-125 0 -200 77.5t-75 211.5v333h-70z" />
    <glyph glyph-name="uhungarumlaut" unicode="&#x171;" horiz-adv-x="639" 
d="M232 691l99 -1l-74 -131h-74zM377 691l102 -1l-75 -131h-76zM603 85l14 -74q-27 -15 -66 -15q-40 0 -65 20t-33 52q-3 15 -3 32h-2q-21 -51 -69 -80.5t-105 -29.5q-87 0 -134 56t-47 156v230h-74v74h146q35 0 35 -34v-253q0 -65 26 -100.5t74 -35.5q55 0 94.5 50
t39.5 110v189h-78v74h151q34 0 34 -34v-356q0 -38 33 -38q13 0 29 7z" />
    <glyph glyph-name="Uogonek" unicode="&#x172;" horiz-adv-x="765" 
d="M478 690h250v-78h-71v-333q0 -119 -59.5 -194t-161.5 -91q-47 -39 -47 -93q0 -18 9 -28t23 -10t27 5v-61q-19 -8 -46 -8q-39 0 -65.5 23t-26.5 63q0 58 48 106q-115 8 -182.5 84t-67.5 204v333h-70v78h249v-78h-71v-333q0 -94 45 -144t122 -50t121.5 50t44.5 144v333h-71
v78z" />
    <glyph glyph-name="uogonek" unicode="&#x173;" horiz-adv-x="639" 
d="M555 -94q0 -18 9 -28t23 -10t27 5v-61q-19 -8 -46 -8q-39 0 -65.5 23t-26.5 63q0 60 51 108q-60 12 -74 70q-3 15 -3 32h-2q-21 -51 -69 -80.5t-105 -29.5q-87 0 -134 56t-47 156v230h-74v74h146q35 0 35 -34v-253q0 -65 26 -100.5t74 -35.5q55 0 94.5 50t39.5 110v189
h-78v74h151q34 0 34 -34v-356q0 -38 33 -38q13 0 29 7l14 -74q-62 -46 -62 -105z" />
    <glyph glyph-name="Wcircumflex" unicode="&#x174;" horiz-adv-x="964" 
d="M488 786l-137 -54l-23 59l160 92l159 -92l-23 -59zM719 690h244v-78h-71l-160 -612h-104l-142 548l-144 -548h-114l-152 612h-71v78h245v-78h-71l106 -499l159 573h91l148 -573l111 499h-75v78z" />
    <glyph glyph-name="wcircumflex" unicode="&#x175;" horiz-adv-x="848" 
d="M434 595l-137 -52l-23 57l160 97l159 -97l-23 -57zM842 506v-76h-65l-135 -430h-111l-107 377l-110 -377h-107l-136 430h-64v76h224v-76h-56l87 -326l115 398h96l112 -403l88 331h-56v76h225z" />
    <glyph glyph-name="Ycircumflex" unicode="&#x176;" horiz-adv-x="664" 
d="M335 786l-137 -54l-23 59l160 92l159 -92l-23 -59zM421 690h239v-75h-70l-204 -352v-185h70v-78h-250v78h72v190l-205 347h-66v75h243v-75h-65l150 -284l156 284h-70v75z" />
    <glyph glyph-name="ycircumflex" unicode="&#x177;" horiz-adv-x="601" 
d="M302 595l-137 -52l-23 57l160 97l159 -97l-23 -57zM594 506v-74h-70l-239 -630h-173v83h111l40 106l-182 441h-73v74h239v-74h-54l115 -335l115 335h-58v74h229z" />
    <glyph glyph-name="Ydieresis" unicode="&#x178;" horiz-adv-x="664" 
d="M249 733q-29 0 -49.5 20t-20.5 49q0 28 20.5 48t49.5 20q28 0 48.5 -20t20.5 -48q0 -29 -20 -49t-49 -20zM426 733q-30 0 -50.5 20t-20.5 49q0 28 20.5 48t50.5 20q28 0 48 -20t20 -48q0 -29 -20 -49t-48 -20zM421 690h239v-75h-70l-204 -352v-185h70v-78h-250v78h72v190
l-205 347h-66v75h243v-75h-65l150 -284l156 284h-70v75z" />
    <glyph glyph-name="Zacute" unicode="&#x179;" horiz-adv-x="587" 
d="M445 790l-236 -65l-22 63l224 101zM459 179h83v-179h-500v64l369 544h-276v-96h-82v178h486v-58l-373 -550h293v97z" />
    <glyph glyph-name="zacute" unicode="&#x17a;" horiz-adv-x="519" 
d="M399 626l-224 -74l-25 60l211 108zM396 163h81v-163h-441v46l305 383h-208v-85h-80v162h415v-59l-294 -369h222v85z" />
    <glyph glyph-name="Zdotaccent" unicode="&#x17b;" horiz-adv-x="587" 
d="M304 727q-33 0 -56.5 23t-23.5 56q0 31 23.5 54t56.5 23q31 0 54 -23t23 -54q0 -33 -22.5 -56t-54.5 -23zM459 179h83v-179h-500v64l369 544h-276v-96h-82v178h486v-58l-373 -550h293v97z" />
    <glyph glyph-name="zdotaccent" unicode="&#x17c;" horiz-adv-x="519" 
d="M264 564q-32 0 -54.5 22t-22.5 54q0 30 22.5 52t54.5 22q30 0 52 -22t22 -52q0 -32 -22 -54t-52 -22zM396 163h81v-163h-441v46l305 383h-208v-85h-80v162h415v-59l-294 -369h222v85z" />
    <glyph glyph-name="Zcaron" unicode="&#x17d;" horiz-adv-x="587" 
d="M461 811l-155 -88l-155 88l22 59l133 -52l132 52zM459 179h83v-179h-500v64l369 544h-276v-96h-82v178h486v-58l-373 -550h293v97z" />
    <glyph glyph-name="zcaron" unicode="&#x17e;" horiz-adv-x="519" 
d="M416 639l-155 -88l-155 88l22 59l133 -52l132 52zM396 163h81v-163h-441v46l305 383h-208v-85h-80v162h415v-59l-294 -369h222v85z" />
    <glyph glyph-name="uni01EA" unicode="&#x1ea;" horiz-adv-x="752" 
d="M423 -7q-53 -43 -53 -98q0 -18 9 -28t23 -10t27 5v-61q-19 -8 -46 -8q-39 0 -65.5 23t-26.5 63q0 63 55 112q-136 11 -218.5 106.5t-82.5 247.5q0 161 91 258t240 97t240 -97t91 -258q0 -147 -77 -242t-207 -110zM157 345q0 -121 60 -192.5t159 -71.5t159 71.5t60 192.5
t-60 192.5t-159 71.5t-159 -71.5t-60 -192.5z" />
    <glyph glyph-name="uni01EB" unicode="&#x1eb;" horiz-adv-x="607" 
d="M350 -7q-48 -41 -48 -94q0 -18 9 -28t23 -10t27 5v-61q-19 -8 -46 -8q-39 0 -65.5 23t-26.5 63q0 60 51 108q-106 10 -169.5 81.5t-63.5 180.5q0 118 72.5 190.5t190.5 72.5t190 -72.5t72 -190.5q0 -105 -58.5 -175.5t-157.5 -84.5zM149 253q0 -79 41.5 -127t113.5 -48
q71 0 112 48t41 127t-41 127t-112 48q-72 0 -113.5 -48t-41.5 -127z" />
    <glyph glyph-name="AEacute" unicode="&#x1fc;" horiz-adv-x="992" 
d="M693 790l-236 -65l-22 63l224 101zM860 174h84v-174h-530v78h71v132h-236l-75 -132h67v-78h-246v78h68l359 612h517v-178h-84v96h-263v-214h249v-84h-249v-228h268v92zM297 294h188v329z" />
    <glyph glyph-name="aeacute" unicode="&#x1fd;" horiz-adv-x="864" 
d="M567 626l-224 -74l-25 60l211 108zM592 515q111 1 169.5 -77.5t53.5 -210.5h-352q6 -67 43.5 -108.5t101.5 -41.5q46 0 82.5 19t51.5 50l68 -46q-21 -48 -76 -79t-126 -31q-142 0 -211 111q-55 -113 -203 -113q-68 0 -112.5 35t-44.5 91q0 80 83.5 130t236.5 52v25
q0 47 -30 76.5t-76 29.5q-43 0 -72 -19.5t-35 -51.5l-88 22q5 55 59 95.5t139 40.5q108 0 166 -77q67 78 172 78zM465 297h250q-3 55 -33 95t-87 40q-50 0 -85 -37t-45 -98zM221 70q54 0 95 40t41 94v20q-212 -7 -212 -94q0 -60 76 -60z" />
    <glyph glyph-name="Oslashacute" unicode="&#x1fe;" horiz-adv-x="752" 
d="M518 808l-236 -65l-22 63l224 101zM621 597q86 -97 86 -252q0 -160 -91 -257.5t-240 -97.5q-115 0 -198 60l-62 -77l-55 43l66 81q-82 98 -82 248q0 161 91 258t240 97q112 0 194 -57l57 70l55 -41zM157 345q0 -96 39 -163l311 383q-53 44 -131 44q-99 0 -159 -71.5
t-60 -192.5zM376 81q99 0 159 71.5t60 192.5q0 100 -42 168l-312 -385q56 -47 135 -47z" />
    <glyph glyph-name="oslashacute" unicode="&#x1ff;" horiz-adv-x="607" 
d="M436 635l-224 -74l-25 60l211 108zM500 438q66 -72 66 -185q0 -117 -72 -190t-190 -73q-86 0 -149 40l-52 -61l-45 39l51 60q-68 71 -68 185q0 118 72.5 190.5t190.5 72.5q86 0 149 -40l45 53l47 -38zM149 253q0 -63 26 -106l216 256q-36 25 -87 25q-72 0 -113.5 -48
t-41.5 -127zM304 78q71 0 112 48t41 127q0 60 -25 105l-216 -255q38 -25 88 -25z" />
    <glyph glyph-name="Scommaaccent" unicode="&#x218;" horiz-adv-x="603" 
d="M160 514q0 -34 17 -58t45.5 -36.5t64 -24t73.5 -19t73.5 -23t64 -35t45.5 -55.5t17 -84q0 -90 -72 -139.5t-186 -49.5q-170 0 -249 100v133h85v-86q51 -59 164 -59q69 0 112 25t43 76q0 35 -22 58.5t-57.5 36t-78.5 23t-85.5 25t-78 35.5t-57.5 60.5t-22 95.5
q0 80 68 133.5t174 53.5q138 0 233 -91v-149h-85v103q-22 21 -61 35.5t-85 14.5q-59 0 -99.5 -27t-40.5 -72zM306 -49q30 0 49 -19.5t19 -47.5q0 -27 -15 -57l-42 -88h-68l40 80q-23 5 -37.5 22t-14.5 42q0 29 19 48.5t50 19.5z" />
    <glyph glyph-name="scommaaccent" unicode="&#x219;" horiz-adv-x="498" 
d="M155 378q0 -31 31 -50t75.5 -30.5t89 -27t75.5 -50t31 -87.5q0 -68 -58 -105t-151 -37q-132 0 -200 68v107h91v-65q43 -29 110 -29q104 0 104 61q0 31 -31 49.5t-75.5 29.5t-88.5 25.5t-75 49.5t-31 91q0 65 51 101.5t140 36.5q126 0 195 -50v-120h-91v63q-42 25 -100 25
q-92 0 -92 -56zM250 -49q30 0 49 -19.5t19 -47.5q0 -27 -15 -57l-42 -88h-68l40 80q-23 5 -37.5 22t-14.5 42q0 29 19 48.5t50 19.5z" />
    <glyph glyph-name="uni021A" unicode="&#x21a;" horiz-adv-x="631" 
d="M23 690h585v-197h-84v115h-154v-530h71v-78h-251v78h72v530h-155v-115h-84v197zM316 -49q30 0 49 -19.5t19 -47.5q0 -27 -15 -57l-42 -88h-68l40 80q-23 5 -37.5 22t-14.5 42q0 29 19 48.5t50 19.5z" />
    <glyph glyph-name="uni021B" unicode="&#x21b;" horiz-adv-x="374" 
d="M352 14q-36 -22 -98 -22q-158 0 -158 182v257h-75v75h72l34 134h76v-134h147v-75h-147l-1 -268q0 -41 18 -62.5t48 -21.5q35 0 65 15zM220 -49q30 0 49 -19.5t19 -47.5q0 -27 -15 -57l-42 -88h-68l40 80q-23 5 -37.5 22t-14.5 42q0 29 19 48.5t50 19.5z" />
    <glyph glyph-name="uni0237" unicode="&#x237;" horiz-adv-x="279" 
d="M-46 -175l19 78q29 -16 64 -16q27 0 43.5 19t16.5 53v472h-71v75h143q34 0 34 -34v-499q0 -81 -42.5 -126t-118.5 -45q-54 0 -88 23z" />
    <glyph glyph-name="circumflex" unicode="&#x2c6;" horiz-adv-x="432" 
d="M373 606l-23 -57l-136 52l-137 -52l-23 57l160 97z" />
    <glyph glyph-name="caron" unicode="&#x2c7;" horiz-adv-x="474" 
d="M369 698l23 -59l-155 -88l-155 88l22 59l133 -52z" />
    <glyph glyph-name="breve" unicode="&#x2d8;" horiz-adv-x="476" 
d="M140 694h88q0 -23 15 -38t41 -15t40 14.5t14 38.5h88q0 -60 -39 -95.5t-103 -35.5q-65 0 -104.5 35.5t-39.5 95.5z" />
    <glyph glyph-name="dotaccent" unicode="&#x2d9;" horiz-adv-x="364" 
d="M198 564q-32 0 -54.5 22t-22.5 54q0 30 22.5 52t54.5 22q30 0 52 -22t22 -52q0 -32 -22 -54t-52 -22z" />
    <glyph glyph-name="ring" unicode="&#x2da;" horiz-adv-x="525" 
d="M137 549q-37 0 -61 24t-24 59q0 33 24.5 56.5t60.5 23.5q35 0 58.5 -23.5t23.5 -56.5q0 -35 -23.5 -59t-58.5 -24zM137 603q11 0 18.5 8t7.5 20q0 11 -7.5 18.5t-18.5 7.5q-12 0 -20 -7.5t-8 -18.5q0 -12 8 -20t20 -8z" />
    <glyph glyph-name="ogonek" unicode="&#x2db;" horiz-adv-x="599" 
d="M339 -199q-19 -8 -46 -8q-39 0 -65.5 23t-26.5 63q0 46 30.5 86t78.5 61l32 -26q-62 -46 -62 -105q0 -18 9 -28t23 -10t27 5v-61z" />
    <glyph glyph-name="tilde" unicode="&#x2dc;" horiz-adv-x="506" 
d="M328 572q-32 0 -69 14.5t-53 14.5q-27 0 -27 -26h-76q-8 50 13.5 80.5t65.5 30.5q31 0 68 -16t52 -16q29 0 29 23h76q5 -48 -15.5 -76.5t-63.5 -28.5z" />
    <glyph glyph-name="hungarumlaut" unicode="&#x2dd;" horiz-adv-x="551" 
d="M289 697l99 -1l-74 -131h-74zM434 697l102 -1l-75 -131h-76z" />
    <glyph glyph-name="gravecomb" unicode="&#x300;" 
d="M-355 718l212 -108l-27 -62l-224 74z" />
    <glyph glyph-name="acutecomb" unicode="&#x301;" 
d="M-157 714l38 -94l-224 -74l-25 60z" />
    <glyph glyph-name="uni0302" unicode="&#x302;" 
d="M-46 606l-23 -57l-136 52l-137 -52l-23 57l160 97z" />
    <glyph glyph-name="tildecomb" unicode="&#x303;" 
d="M-148 572q-32 0 -69 14.5t-53 14.5q-27 0 -27 -26h-76q-8 50 13.5 80.5t65.5 30.5q31 0 68 -16t52 -16q29 0 29 23h76q5 -48 -15.5 -76.5t-63.5 -28.5z" />
    <glyph glyph-name="uni0304" unicode="&#x304;" 
d="M-271 670h238v-83h-238v83z" />
    <glyph glyph-name="uni0306" unicode="&#x306;" 
d="M-346 694h88q0 -23 15 -38t41 -15t40 14.5t14 38.5h88q0 -60 -39 -95.5t-103 -35.5q-65 0 -104.5 35.5t-39.5 95.5z" />
    <glyph glyph-name="uni0307" unicode="&#x307;" 
d="M-165 564q-32 0 -54.5 22t-22.5 54q0 30 22.5 52t54.5 22q30 0 52 -22t22 -52q0 -32 -22 -54t-52 -22z" />
    <glyph glyph-name="uni0308" unicode="&#x308;" 
d="M-285 564q-29 0 -49 19.5t-20 47.5q0 26 20.5 46t48.5 20q27 0 46.5 -20t19.5 -46q0 -28 -19.5 -47.5t-46.5 -19.5zM-107 564q-29 0 -49 19.5t-20 47.5q0 27 20 46.5t49 19.5q26 0 46 -20t20 -46q0 -28 -19.5 -47.5t-46.5 -19.5z" />
    <glyph glyph-name="uni030A" unicode="&#x30a;" 
d="M-126 549q-37 0 -61 24t-24 59q0 33 24.5 56.5t60.5 23.5q35 0 58.5 -23.5t23.5 -56.5q0 -35 -23.5 -59t-58.5 -24zM-126 603q11 0 18.5 8t7.5 20q0 11 -7.5 18.5t-18.5 7.5q-12 0 -20 -7.5t-8 -18.5q0 -12 8 -20t20 -8z" />
    <glyph glyph-name="uni030B" unicode="&#x30b;" 
d="M-379 697l99 -1l-74 -131h-74zM-234 697l102 -1l-75 -131h-76z" />
    <glyph glyph-name="uni030C" unicode="&#x30c;" 
d="M-73 698l23 -59l-155 -88l-155 88l22 59l133 -52z" />
    <glyph glyph-name="uni0326" unicode="&#x326;" 
d="M-128 -49q30 0 49 -19.5t19 -47.5q0 -27 -15 -57l-42 -88h-68l40 80q-23 5 -37.5 22t-14.5 42q0 29 19 48.5t50 19.5z" />
    <glyph glyph-name="uni0327" unicode="&#x327;" 
d="M-103 -43q29 0 47.5 -21t18.5 -55q0 -35 -28 -58t-73 -23q-50 0 -84 23l19 48q27 -19 56 -19q40 0 40 31t-40 31h-34l14 91h70z" />
    <glyph glyph-name="uni0328" unicode="&#x328;" 
d="M-136 -199q-19 -8 -46 -8q-39 0 -65.5 23t-26.5 63q0 46 30.5 86t78.5 61l32 -26q-62 -46 -62 -105q0 -18 9 -28t23 -10t27 5v-61z" />
    <glyph glyph-name="uni0335" unicode="&#x335;" 
d="M-458 562h328v-69h-328v69z" />
    <glyph glyph-name="uni0336" unicode="&#x336;" 
d="M-708 561h710v-67h-710v67z" />
    <glyph glyph-name="uni0337" unicode="&#x337;" 
d="M-357 395l274 127l30 -65l-275 -125z" />
    <glyph glyph-name="uni0338" unicode="&#x338;" 
d="M-87 541l47 -38l-442 -522l-45 39z" />
    <glyph glyph-name="Wgrave" unicode="&#x1e80;" horiz-adv-x="964" 
d="M608 790l-24 -66l-237 61l34 102zM719 690h244v-78h-71l-160 -612h-104l-142 548l-144 -548h-114l-152 612h-71v78h245v-78h-71l106 -499l159 573h91l148 -573l111 499h-75v78z" />
    <glyph glyph-name="wgrave" unicode="&#x1e81;" horiz-adv-x="848" 
d="M541 604l-27 -62l-224 74l39 96zM842 506v-76h-65l-135 -430h-111l-107 377l-110 -377h-107l-136 430h-64v76h224v-76h-56l87 -326l115 398h96l112 -403l88 331h-56v76h225z" />
    <glyph glyph-name="Wacute" unicode="&#x1e82;" horiz-adv-x="964" 
d="M632 790l-236 -65l-22 63l224 101zM719 690h244v-78h-71l-160 -612h-104l-142 548l-144 -548h-114l-152 612h-71v78h245v-78h-71l106 -499l159 573h91l148 -573l111 499h-75v78z" />
    <glyph glyph-name="wacute" unicode="&#x1e83;" horiz-adv-x="848" 
d="M570 620l-224 -74l-25 60l211 108zM842 506v-76h-65l-135 -430h-111l-107 377l-110 -377h-107l-136 430h-64v76h224v-76h-56l87 -326l115 398h96l112 -403l88 331h-56v76h225z" />
    <glyph glyph-name="Wdieresis" unicode="&#x1e84;" horiz-adv-x="964" 
d="M402 733q-29 0 -49.5 20t-20.5 49q0 28 20.5 48t49.5 20q28 0 48.5 -20t20.5 -48q0 -29 -20 -49t-49 -20zM579 733q-30 0 -50.5 20t-20.5 49q0 28 20.5 48t50.5 20q28 0 48 -20t20 -48q0 -29 -20 -49t-48 -20zM719 690h244v-78h-71l-160 -612h-104l-142 548l-144 -548
h-114l-152 612h-71v78h245v-78h-71l106 -499l159 573h91l148 -573l111 499h-75v78z" />
    <glyph glyph-name="wdieresis" unicode="&#x1e85;" horiz-adv-x="848" 
d="M347 558q-29 0 -49 19.5t-20 47.5q0 26 20.5 46t48.5 20q27 0 46.5 -20t19.5 -46q0 -28 -19.5 -47.5t-46.5 -19.5zM525 558q-29 0 -49 19.5t-20 47.5q0 27 20 46.5t49 19.5q26 0 46 -20t20 -46q0 -28 -19.5 -47.5t-46.5 -19.5zM842 506v-76h-65l-135 -430h-111l-107 377
l-110 -377h-107l-136 430h-64v76h224v-76h-56l87 -326l115 398h96l112 -403l88 331h-56v76h225z" />
    <glyph glyph-name="uni1E9E" unicode="&#x1e9e;" horiz-adv-x="802" 
d="M558 514q0 -36 16 -64t39.5 -44.5t51 -37.5t51 -42t39.5 -58.5t16 -86.5q0 -86 -60.5 -138.5t-157.5 -52.5q-129 0 -200 96v136h84v-85q38 -60 116 -60q48 0 79.5 28t31.5 76q0 29 -11.5 52t-29.5 39t-39.5 31t-43.5 32.5t-40 38.5t-29.5 53t-11.5 72q0 65 48 109
l-177 -1q-42 0 -68 -26.5t-26 -67.5v-513h-191v77h83v351h-83v78h83v8q0 79 53 127.5t141 48.5h332v-82h-1q-44 0 -69.5 -27.5t-25.5 -66.5z" />
    <glyph glyph-name="Ygrave" unicode="&#x1ef2;" horiz-adv-x="664" 
d="M455 790l-24 -66l-237 61l34 102zM421 690h239v-75h-70l-204 -352v-185h70v-78h-250v78h72v190l-205 347h-66v75h243v-75h-65l150 -284l156 284h-70v75z" />
    <glyph glyph-name="ygrave" unicode="&#x1ef3;" horiz-adv-x="601" 
d="M409 604l-27 -62l-224 74l39 96zM594 506v-74h-70l-239 -630h-173v83h111l40 106l-182 441h-73v74h239v-74h-54l115 -335l115 335h-58v74h229z" />
    <glyph glyph-name="uni1EF8" unicode="&#x1ef8;" horiz-adv-x="664" 
d="M256 757h-79q-8 51 14 83t68 32q32 0 70.5 -16.5t54.5 -16.5q30 0 30 23h79q5 -50 -16 -79.5t-66 -29.5q-33 0 -71.5 15.5t-55.5 15.5q-28 0 -28 -27zM421 690h239v-75h-70l-204 -352v-185h70v-78h-250v78h72v190l-205 347h-66v75h243v-75h-65l150 -284l156 284h-70v75z
" />
    <glyph glyph-name="uni1EF9" unicode="&#x1ef9;" horiz-adv-x="601" 
d="M227 569h-76q-8 50 13.5 80.5t65.5 30.5q31 0 68 -16t52 -16q29 0 29 23h76q5 -48 -15.5 -76.5t-63.5 -28.5q-32 0 -69 14.5t-53 14.5q-27 0 -27 -26zM594 506v-74h-70l-239 -630h-173v83h111l40 106l-182 441h-73v74h239v-74h-54l115 -335l115 335h-58v74h229z" />
    <glyph glyph-name="endash" unicode="&#x2013;" horiz-adv-x="526" 
d="M63 322h400v-84h-400v84z" />
    <glyph glyph-name="emdash" unicode="&#x2014;" horiz-adv-x="754" 
d="M63 322h628v-84h-628v84z" />
    <glyph glyph-name="quoteleft" unicode="&#x2018;" horiz-adv-x="236" 
d="M135 617q24 -8 39 -28t15 -46q0 -30 -22.5 -52.5t-54.5 -22.5q-30 0 -52 22.5t-22 52.5q0 21 18 62l60 144h76z" />
    <glyph glyph-name="quoteright" unicode="&#x2019;" horiz-adv-x="241" 
d="M133 732q30 0 52 -22.5t22 -52.5q0 -21 -18 -62l-60 -144h-76l57 132q-24 8 -39 28t-15 46q0 30 22.5 52.5t54.5 22.5z" />
    <glyph glyph-name="quotesinglbase" unicode="&#x201a;" horiz-adv-x="240" 
d="M122 141q30 0 52 -22.5t22 -52.5q0 -21 -18 -62l-60 -144h-76l57 132q-24 8 -39 28t-15 46q0 30 22.5 52.5t54.5 22.5z" />
    <glyph glyph-name="quotedblleft" unicode="&#x201c;" horiz-adv-x="418" 
d="M119 724h76l-57 -132q24 -8 39 -28t15 -46q0 -30 -22.5 -52.5t-54.5 -22.5q-30 0 -52 22.5t-22 52.5q0 21 18 62zM315 592q24 -8 39 -28t15 -46q0 -30 -22.5 -52.5t-54.5 -22.5q-30 0 -52 22.5t-22 52.5q0 21 18 62l60 144h76z" />
    <glyph glyph-name="quotedblright" unicode="&#x201d;" horiz-adv-x="432" 
d="M133 732q30 0 52 -22.5t22 -52.5q0 -21 -18 -62l-60 -144h-76l57 132q-24 8 -39 28t-15 46q0 30 22.5 52.5t54.5 22.5zM324 732q30 0 52 -22.5t22 -52.5q0 -21 -18 -62l-60 -144h-76l57 132q-24 8 -39 28t-15 46q0 30 22.5 52.5t54.5 22.5z" />
    <glyph glyph-name="quotedblbase" unicode="&#x201e;" horiz-adv-x="431" 
d="M122 141q30 0 52 -22.5t22 -52.5q0 -21 -18 -62l-60 -144h-76l57 132q-24 8 -39 28t-15 46q0 30 22.5 52.5t54.5 22.5zM313 141q30 0 52 -22.5t22 -52.5q0 -21 -18 -62l-60 -144h-76l57 132q-24 8 -39 28t-15 46q0 30 22.5 52.5t54.5 22.5z" />
    <glyph glyph-name="dagger" unicode="&#x2020;" horiz-adv-x="446" 
d="M408 387v-83h-136v-524h-98v524h-137v83h137v303h98v-303h136z" />
    <glyph glyph-name="daggerdbl" unicode="&#x2021;" horiz-adv-x="446" 
d="M408 424h-136v-198h136v-83h-136v-363h-98v363h-137v83h137v198h-137v83h137v183h98v-183h136v-83z" />
    <glyph glyph-name="bullet" unicode="&#x2022;" horiz-adv-x="371" 
d="M187 171q-47 0 -80 33t-33 80q0 44 33.5 76.5t79.5 32.5q45 0 77 -32.5t32 -76.5q0 -47 -32 -80t-77 -33z" />
    <glyph glyph-name="ellipsis" unicode="&#x2026;" horiz-adv-x="679" 
d="M125 -10q-32 0 -54.5 22.5t-22.5 53.5q0 30 23 52.5t54 22.5q30 0 52 -22.5t22 -52.5q0 -32 -21.5 -54t-52.5 -22zM345 -10q-32 0 -54.5 22.5t-22.5 53.5q0 30 23 52.5t54 22.5q30 0 52 -22.5t22 -52.5q0 -32 -21.5 -54t-52.5 -22zM556 -10q-32 0 -54.5 22.5t-22.5 53.5
q0 30 23 52.5t54 22.5q30 0 52 -22.5t22 -52.5q0 -32 -21.5 -54t-52.5 -22z" />
    <glyph glyph-name="perthousand" unicode="&#x2030;" horiz-adv-x="1052" 
d="M181 336q-64 0 -104.5 51t-40.5 131t39.5 131t105.5 51q65 0 105 -50.5t40 -131.5q0 -79 -39.5 -130.5t-105.5 -51.5zM181 402q32 0 51.5 31.5t19.5 84.5t-19 84.5t-52 31.5t-52 -31.5t-19 -84.5t19 -84.5t52 -31.5zM571 591l-330 -534l-70 42l330 533zM552 -10
q-64 0 -104 50.5t-40 131.5q0 80 39 131t105 51q65 0 105.5 -50.5t40.5 -131.5q0 -79 -39.5 -130.5t-106.5 -51.5zM873 -10q-64 0 -104 52t-40 130q0 79 40 130.5t104 51.5t105 -51.5t41 -130.5q0 -78 -41 -130t-105 -52zM552 56q32 0 52 31.5t20 84.5t-19.5 84.5
t-52.5 31.5q-32 0 -50.5 -31.5t-18.5 -84.5q0 -52 18.5 -84t50.5 -32zM873 56q32 0 51.5 32t19.5 84q0 53 -19.5 84.5t-51.5 31.5t-51 -31.5t-19 -84.5q0 -52 19 -84t51 -32z" />
    <glyph glyph-name="guilsinglleft" unicode="&#x2039;" horiz-adv-x="309" 
d="M260 505l-130 -170l130 -170h-109l-115 155v29l115 156h109z" />
    <glyph glyph-name="guilsinglright" unicode="&#x203a;" horiz-adv-x="309" 
d="M158 505l115 -156v-29l-115 -155h-109l130 170l-130 170h109z" />
    <glyph glyph-name="fraction" unicode="&#x2044;" horiz-adv-x="403" 
d="M401 591l-330 -534l-70 42l330 533z" />
    <glyph glyph-name="Euro" unicode="&#x20ac;" horiz-adv-x="683" 
d="M461 432l-12 -67h-412v67h70q19 125 94.5 196.5t187.5 71.5q140 0 230 -78v-162h-85v105q-57 45 -141 45q-66 0 -111 -47t-60 -131h239zM535 198h85v-139q-87 -69 -229 -69q-109 0 -184 68t-97 182h-73v66h396l-11 -66h-196q17 -72 62.5 -115.5t108.5 -43.5q88 0 138 41
v76z" />
    <glyph glyph-name="trademark" unicode="&#x2122;" horiz-adv-x="1030" 
d="M37 557v133h376v-133h-58v72h-91v-316h52v-65h-183v65h53v316h-92v-72h-57zM968 624h-51v-311h51v-65h-174v65h50v249l-103 -198h-76l-105 199v-250h50v-65h-172v65h50v311h-49v66h134l130 -251l129 251h136v-66z" />
    <glyph glyph-name="minus" unicode="&#x2212;" horiz-adv-x="559" 
d="M65 352h429v-86l-429 -1v87z" />
    <glyph glyph-name="approxequal" unicode="&#x2248;" horiz-adv-x="529" 
d="M353 323q-42 0 -90.5 20.5t-73.5 20.5q-44 0 -44 -36h-80q1 55 30 87.5t81 32.5q39 0 88.5 -22t77.5 -22q19 0 30.5 8t11.5 21h80q-1 -52 -30 -81t-81 -29zM353 148q-42 0 -90.5 20.5t-73.5 20.5q-44 0 -44 -36h-80q1 55 30 87.5t81 32.5q39 0 88.5 -22t77.5 -22
q19 0 30.5 8t11.5 21h80q-1 -52 -30 -81t-81 -29z" />
    <glyph glyph-name="notequal" unicode="&#x2260;" horiz-adv-x="541" 
d="M475 361h-151l-37 -107h188v-86h-218l-30 -87h-79l30 87h-114v86h145l37 107h-182v86h212l30 85h77l-29 -85h121v-86z" />
    <glyph glyph-name="uniF8FF" unicode="&#xf8ff;" horiz-adv-x="1451" 
d="M691 583q0 26 17.5 44t43.5 18t44 -18t18 -44t-18 -43.5t-44 -17.5t-43.5 18t-17.5 43zM219 270h-119q0 78 2 156.5t4 117.5l3 40h100q9 -139 10 -314zM694 270q0 92 3 147h-61l3 -65q4 -4 15 -4q6 0 10.5 1t5.5 3l2 1v-74q-10 -15 -66 -15q-84 0 -84 66q0 15 2 50t2 37
h-22v79l119 30l1 -17h178q10 -64 10 -239h-118zM328 265q-92 0 -92 113q0 136 137 136q119 0 121 -117v-127h-83l-8 61q-6 -33 -23.5 -49.5t-51.5 -16.5zM1090 270h-114q0 26 1 56t1 40q0 26 -15 26q-18 0 -18 -26q0 -10 1.5 -40t1.5 -56h-114q0 78 2.5 137.5t5.5 80.5l2 21
h80q6 -45 6 -76q0 9 4.5 25t24.5 36t52 20q41 0 57.5 -24.5t18.5 -81.5zM1351 384q0 -55 -31 -87t-93 -32q-60 0 -90.5 33t-30.5 86q0 130 122 130q70 0 96.5 -34.5t26.5 -95.5zM390 375q0 26 -23 26t-23 -26q0 -30 23 -30t23 30zM1251 375q0 26 -23 26q-21 0 -21 -26
q0 -30 21 -30q23 0 23 30zM428 238h104q10 -60 10 -147q0 -73 -35 -107t-114 -34q-32 0 -54.5 4t-29.5 8l-7 5v83q20 -16 69 -16q24 0 37.5 7t15.5 14l2 7q-13 -11 -49 -11q-90 0 -90 83v13h-55l3 -65q4 -4 15 -4q6 0 10.5 1t5.5 3l2 1v-73q-10 -15 -67 -15q-82 0 -82 64
q0 46 3 88h-18v80l117 29l-1 -17l177 -1v-119q0 -27 14 -27q17 0 17 27v119zM733 243q37 0 58.5 -29t21.5 -83q0 -136 -137 -136q1 -13 1 -39h-119q0 76 2.5 146.5t5.5 103.5l2 32h78q7 -52 7 -76q2 11 6.5 25.5t24 35t49.5 20.5zM1070 129l-3 -37h-124q9 -18 49 -18
q16 0 30 3t20 6l6 3v-75q-20 -16 -78 -16q-69 0 -105 31t-36 86q0 64 32.5 97.5t93.5 33.5q54 0 84.5 -30t30.5 -84zM978 109q3 27 -17 27q-23 0 -23 -27h40zM670 72q4 0 10 1.5t16.5 11t10.5 25.5q0 22 -20 22q-22 0 -22 -32zM1075 13q0 -10 6.5 -16.5t16.5 -6.5
q9 0 15.5 6.5t6.5 16.5t-6.5 16t-15.5 6q-10 0 -16.5 -6t-6.5 -16zM1080 13q0 7 5 12.5t13 5.5q7 0 12 -5.5t5 -12.5t-5 -12.5t-12 -5.5q-8 0 -13 5.5t-5 12.5zM1108 2l-6 9q7 0 7 7t-10 7h-11v-23h5v9h5l4 -9h6zM1099 15h-6v6h5q6 0 6 -2q0 -4 -5 -4z" />
    <glyph glyph-name="i.loclTRK" horiz-adv-x="322" 
d="M171 564q-32 0 -54.5 22t-22.5 54q0 30 22.5 52t54.5 22q30 0 52 -22t22 -52q0 -32 -22 -54t-52 -22zM188 506q34 0 34 -34v-397h73v-75h-254v75h75v355l-75 1v75h147z" />
    <glyph glyph-name="caroncomb.alt" 
d="M-203 519l13 210h101l-30 -210h-84z" />
    <glyph glyph-name="uni0308.case" 
d="M-285 733q-29 0 -49.5 20t-20.5 49q0 28 20.5 48t49.5 20q28 0 48.5 -20t20.5 -48q0 -29 -20 -49t-49 -20zM-108 733q-30 0 -50.5 20t-20.5 49q0 28 20.5 48t50.5 20q28 0 48 -20t20 -48q0 -29 -20 -49t-48 -20z" />
    <glyph glyph-name="uni0307.case" 
d="M-165 727q-33 0 -56.5 23t-23.5 56q0 31 23.5 54t56.5 23q31 0 54 -23t23 -54q0 -33 -22.5 -56t-54.5 -23z" />
    <glyph glyph-name="gravecomb.case" 
d="M-311 887l227 -97l-24 -66l-237 61z" />
    <glyph glyph-name="acutecomb.case" 
d="M-102 889l34 -99l-236 -65l-22 63z" />
    <glyph glyph-name="uni030B.case" 
d="M-265 878l103 -1l-77 -136h-77zM-114 878l106 -1l-78 -136h-79z" />
    <glyph glyph-name="uni0302.case" 
d="M-46 791l-23 -59l-136 54l-137 -54l-23 59l160 92z" />
    <glyph glyph-name="uni030C.case" 
d="M-68 870l23 -59l-155 -88l-155 88l22 59l133 -52z" />
    <glyph glyph-name="uni0306.case" 
d="M-346 859h89q0 -23 15 -37t40 -14q24 0 38.5 14t14.5 37h89q0 -60 -39 -95.5t-103 -35.5q-65 0 -104.5 35.5t-39.5 95.5z" />
    <glyph glyph-name="uni030A.case" 
d="M-126 721q-43 0 -71 27.5t-28 68.5q0 39 28.5 66t70.5 27q41 0 68 -27t27 -66q0 -41 -27 -68.5t-68 -27.5zM-126 784q13 0 21.5 9t8.5 23t-8 22t-22 8t-23 -8.5t-9 -21.5q0 -14 9 -23t23 -9z" />
    <glyph glyph-name="tildecomb.case" 
d="M-145 753q-33 0 -71.5 15.5t-55.5 15.5q-28 0 -28 -27h-79q-8 51 14 83t68 32q32 0 70.5 -16.5t54.5 -16.5q30 0 30 23h79q5 -50 -16 -79.5t-66 -29.5z" />
    <glyph glyph-name="uni0304.case" 
d="M-283 844h261v-91h-261v91z" />
    <glyph glyph-name="uni0337.case" 
d="M-204 592l29 -66l-304 -132l-27 64z" />
    <glyph glyph-name="uni0338.case" 
d="M-64 699l55 -41l-566 -699l-55 43z" />
    <glyph glyph-name="caron.alt" horiz-adv-x="600" 
d="M101 519l13 210h101l-30 -210h-84z" />
    <glyph glyph-name="acute.case" horiz-adv-x="565" 
d="M384 889l34 -99l-236 -65l-22 63z" />
    <glyph glyph-name="breve.case" horiz-adv-x="476" 
d="M140 859h89q0 -23 15 -37t40 -14q24 0 38.5 14t14.5 37h89q0 -60 -39 -95.5t-103 -35.5q-65 0 -104.5 35.5t-39.5 95.5z" />
    <glyph glyph-name="caron.case" horiz-adv-x="474" 
d="M401 870l23 -59l-155 -88l-155 88l22 59l133 -52z" />
    <glyph glyph-name="circumflex.case" horiz-adv-x="500" 
d="M452 791l-23 -59l-136 54l-137 -54l-23 59l160 92z" />
    <glyph glyph-name="dieresis.case" horiz-adv-x="568" 
d="M160 733q-29 0 -49.5 20t-20.5 49q0 28 20.5 48t49.5 20q28 0 48.5 -20t20.5 -48q0 -29 -20 -49t-49 -20zM337 733q-30 0 -50.5 20t-20.5 49q0 28 20.5 48t50.5 20q28 0 48 -20t20 -48q0 -29 -20 -49t-48 -20z" />
    <glyph glyph-name="dotaccent.case" horiz-adv-x="491" 
d="M190 727q-33 0 -56.5 23t-23.5 56q0 31 23.5 54t56.5 23q31 0 54 -23t23 -54q0 -33 -22.5 -56t-54.5 -23z" />
    <glyph glyph-name="grave.case" horiz-adv-x="564" 
d="M203 887l227 -97l-24 -66l-237 61z" />
    <glyph glyph-name="hungarumlaut.case" horiz-adv-x="551" 
d="M241 878l103 -1l-77 -136h-77zM392 878l106 -1l-78 -136h-79z" />
    <glyph glyph-name="macron.case" horiz-adv-x="507" 
d="M165 844h261v-91h-261v91z" />
    <glyph glyph-name="ring.case" horiz-adv-x="544" 
d="M146 721q-43 0 -71 27.5t-28 68.5q0 39 28.5 66t70.5 27q41 0 68 -27t27 -66q0 -41 -27 -68.5t-68 -27.5zM146 784q13 0 21.5 9t8.5 23t-8 22t-22 8t-23 -8.5t-9 -21.5q0 -14 9 -23t23 -9z" />
    <glyph glyph-name="tilde.case" horiz-adv-x="506" 
d="M328 753q-33 0 -71.5 15.5t-55.5 15.5q-28 0 -28 -27h-79q-8 51 14 83t68 32q32 0 70.5 -16.5t54.5 -16.5q30 0 30 23h79q5 -50 -16 -79.5t-66 -29.5z" />
    <glyph glyph-name="IJacute" horiz-adv-x="941" 
d="M287 889l34 -99l-236 -65l-22 63zM888 889l34 -99l-236 -65l-22 63zM54 0v78h71v534h-71v78h250v-78h-70v-534h70v-78h-250zM644 690h260v-78h-71v-401q0 -109 -65.5 -165t-171.5 -56q-66 0 -122 24.5t-86 71.5v144h94v-100q39 -46 116 -46q56 0 91.5 35t35.5 98v395h-81
v78z" />
    <glyph glyph-name="ijacute" horiz-adv-x="602" 
d="M268 720l38 -94l-224 -74l-25 60zM566 720l38 -94l-224 -74l-25 60zM188 506q34 0 34 -34v-397h73v-75h-254v75h75v355l-75 1v75h147zM276 -175l19 78q29 -16 64 -16q27 0 43.5 19t16.5 53v472h-71v75h143q34 0 34 -34v-499q0 -81 -42.5 -126t-118.5 -45q-54 0 -88 23z
" />
    </font>
</defs>
</svg>
